<svg width="482" height="482" viewBox="0 0 482 482" fill="none" xmlns="http://www.w3.org/2000/svg">
<path d="M135.269 345.875V135.524H165.569V195.625H180.845H255.719V286.025H271.245V75.6748H301.295V286.025H346.621V271.501H361.646V240.95H376.17V225.925H405.97V256.225H391.195V286.025H377.172V316.576H361.646V345.875H346.621V361.401H331.345V376.926H316.32V391.701H286.02V407.477H195.118V391.701H165.569V375.424H149.793V345.875H135.269Z" fill="#FF8000" stroke="black"/>
<rect x="121" y="135.525" width="14.5242" height="210.851" fill="#1D0330"/>
<rect x="135.519" y="345.875" width="15.025" height="30.5509" fill="#1D0330"/>
<rect x="150.543" y="375.428" width="15.025" height="14.5242" fill="#1D0330"/>
<rect x="315.825" y="376.426" width="15.025" height="15.025" fill="#1D0330"/>
<rect x="330.85" y="360.9" width="15.025" height="15.5259" fill="#1D0330"/>
<rect x="346.374" y="345.875" width="15.025" height="15.5259" fill="#1D0330"/>
<rect x="360.9" y="316.326" width="15.025" height="29.5492" fill="#1D0330"/>
<rect x="375.925" y="286.275" width="15.025" height="29.5492" fill="#1D0330"/>
<rect x="390.95" y="256.226" width="15.025" height="29.5492" fill="#1D0330"/>
<rect x="405.975" y="226.677" width="15.025" height="29.5492" fill="#1D0330"/>
<rect x="376.424" y="226.176" width="15.025" height="29.5492" transform="rotate(-90 376.424 226.176)" fill="#1D0330"/>
<rect x="270.75" y="75.9255" width="15.025" height="30.5509" transform="rotate(-90 270.75 75.9255)" fill="#1D0330"/>
<rect x="361.407" y="241.2" width="15.025" height="14.5242" transform="rotate(-90 361.407 241.2)" fill="#1D0330"/>
<rect x="345.875" y="271.251" width="30.05" height="15.5259" transform="rotate(-90 345.875 271.251)" fill="#1D0330"/>
<rect x="315.825" y="271.251" width="31.0517" height="14.5242" fill="#1D0330"/>
<rect x="224.678" y="285.775" width="31.0517" height="14.5242" fill="#1D0330"/>
<rect x="179.596" y="285.775" width="31.0517" height="14.5242" fill="#1D0330"/>
<rect x="226.174" y="180.6" width="29.5492" height="15.5259" fill="#1D0330"/>
<rect x="179.596" y="180.6" width="31.0517" height="15.5259" fill="#1D0330"/>
<rect x="135.519" y="121" width="31.0517" height="14.5242" fill="#1D0330"/>
<rect x="315.825" y="75.9255" width="209.849" height="14.5242" transform="rotate(90 315.825 75.9255)" fill="#1D0330"/>
<rect x="271.25" y="75.9255" width="209.849" height="15.5258" transform="rotate(90 271.25 75.9255)" fill="#1D0330"/>
<rect x="226.174" y="196.125" width="89.6493" height="15.5259" transform="rotate(90 226.174 196.125)" fill="#1D0330"/>
<rect x="181.1" y="135.023" width="150.751" height="15.5258" transform="rotate(90 181.1 135.023)" fill="#1D0330"/>
<rect x="165.576" y="391.451" width="30.05" height="14.5242" fill="#1D0330"/>
<rect x="285.775" y="391.451" width="30.05" height="14.5242" fill="#1D0330"/>
<rect x="195.626" y="406.476" width="90.1501" height="14.5242" fill="#1D0330"/>
<path d="M1 1L1.00002 480.999M16 1L16 480.999M31 1L31 480.999M46 1L46 480.999M61 1L61 480.999M76 1L76 480.999M91 1L91 480.999M106 1L106 480.999M121 1L121 480.999M136 1L136 480.999M151 1L151 480.999M166 1L166 480.999M181 1L181 480.999M196 1L196 480.999M211 1L211 480.999M226 1L226 480.999M241 1L241 480.999M256 1L256 480.999M271 1L271 480.999M286 1L286 480.999M301 1L301 480.999M316 1L316 480.999M331 1L331 480.999M346 1L346 480.999M361 1L361 480.999M376 1L376 480.999M391 1L391 480.999M406 1L406 480.999M421 1L421 480.999M436 1L436 480.999M451 1L451 480.999M466 1L466 480.999M481 1L481 480.999" stroke="black" stroke-opacity="0.2"/>
<path d="M1 1H480.999M1 16H480.999M1 31H480.999M1 45.9999H480.999M1 60.9999H480.999M1 75.9999H480.999M1 90.9999H480.999M1 106H480.999M1 121H480.999M1 136H480.999M1 151H480.999M1 166H480.999M1 181H480.999M1 196H480.999M1 211H480.999M1 226H480.999M1 241H480.999M1 256H480.999M1 271H480.999M1 286H480.999M1 301H480.999M1 316H480.999M1 331H480.999M1 345.999H480.999M1 360.999H480.999M1 375.999H480.999M1 390.999H480.999M1 405.999H480.999M1 420.999H480.999M1 435.999H480.999M1 450.999H480.999M1 465.999H480.999M1 480.999H480.999" stroke="black" stroke-opacity="0.2"/>
</svg>
