<svg width="482" height="482" viewBox="0 0 482 482" fill="none" xmlns="http://www.w3.org/2000/svg">
<path d="M1 1L1.00002 480.999M16 1L16 480.999M31 1L31 480.999M46 1L46 480.999M61 1L61 480.999M76 1L76 480.999M91 1L91 480.999M106 1L106 480.999M121 1L121 480.999M136 1L136 480.999M151 1L151 480.999M166 1L166 480.999M181 1L181 480.999M196 1L196 480.999M211 1L211 480.999M226 1L226 480.999M241 1L241 480.999M256 1L256 480.999M271 1L271 480.999M286 1L286 480.999M301 1L301 480.999M316 1L316 480.999M331 1L331 480.999M346 1L346 480.999M361 1L361 480.999M376 1L376 480.999M391 1L391 480.999M406 1L406 480.999M421 1L421 480.999M436 1L436 480.999M451 1L451 480.999M466 1L466 480.999M481 1L481 480.999" stroke="black" stroke-opacity="0.2"/>
<path d="M1 1H480.999M1 16H480.999M1 31H480.999M1 45.9999H480.999M1 60.9999H480.999M1 75.9999H480.999M1 90.9999H480.999M1 106H480.999M1 121H480.999M1 136H480.999M1 151H480.999M1 166H480.999M1 181H480.999M1 196H480.999M1 211H480.999M1 226H480.999M1 241H480.999M1 256H480.999M1 271H480.999M1 286H480.999M1 301H480.999M1 316H480.999M1 331H480.999M1 345.999H480.999M1 360.999H480.999M1 375.999H480.999M1 390.999H480.999M1 405.999H480.999M1 420.999H480.999M1 435.999H480.999M1 450.999H480.999M1 465.999H480.999M1 480.999H480.999" stroke="black" stroke-opacity="0.2"/>
<g style="mix-blend-mode:multiply">
<rect x="195.732" y="391.793" width="15.0268" height="15.0268" fill="#1D0330"/>
<rect x="195.732" y="361.74" width="15.0268" height="15.0268" fill="#FF8000"/>
<rect x="195.732" y="376.767" width="15.0268" height="15.0268" fill="#E8FBFF"/>
<rect x="195.732" y="256.553" width="15.0268" height="15.0268" fill="#E8FBFF"/>
<rect x="165.678" y="256.553" width="15.0268" height="15.0268" fill="#E8FBFF"/>
<rect x="285.892" y="256.553" width="15.0268" height="15.0268" fill="#E8FBFF"/>
<rect x="195.732" y="241.526" width="15.0268" height="15.0268" fill="#E8FBFF"/>
<rect x="165.678" y="241.526" width="15.0268" height="15.0268" fill="#E8FBFF"/>
<rect x="285.892" y="241.526" width="15.0268" height="15.0268" fill="#E8FBFF"/>
<rect x="195.732" y="226.5" width="15.0268" height="15.0268" fill="#E8FBFF"/>
<rect x="195.732" y="211.473" width="15.0268" height="15.0268" fill="#E8FBFF"/>
<rect x="195.732" y="196.446" width="15.0268" height="15.0268" fill="#E8FBFF"/>
<rect x="195.732" y="181.419" width="15.0268" height="15.0268" fill="#E8FBFF"/>
<rect x="195.732" y="346.713" width="15.0268" height="15.0268" fill="#FF8000"/>
<rect x="180.705" y="346.713" width="15.0268" height="15.0268" fill="#FF8000"/>
<rect x="285.892" y="346.713" width="15.0268" height="15.0268" fill="#FF8000"/>
<rect x="195.732" y="331.687" width="15.0268" height="15.0268" fill="#FFDCDC"/>
<rect x="180.705" y="331.687" width="15.0268" height="15.0268" fill="#FF8000"/>
<rect x="285.892" y="331.687" width="15.0268" height="15.0268" fill="#FF8000"/>
<rect x="300.919" y="331.687" width="15.0268" height="15.0268" fill="#FF8000"/>
<rect x="300.919" y="346.713" width="15.0268" height="15.0268" fill="#E8FBFF"/>
<rect x="300.919" y="361.74" width="15.0268" height="15.0268" fill="#E8FBFF"/>
<rect x="285.892" y="361.74" width="15.0268" height="15.0268" fill="#E8FBFF"/>
<rect x="180.705" y="361.74" width="15.0268" height="15.0268" fill="#E8FBFF"/>
<rect x="165.678" y="361.74" width="15.0268" height="15.0268" fill="#E8FBFF"/>
<rect x="165.678" y="346.713" width="15.0268" height="15.0268" fill="#E8FBFF"/>
<rect x="165.678" y="331.687" width="15.0268" height="15.0268" fill="#FF8000"/>
<rect x="150.652" y="331.687" width="15.0268" height="15.0268" fill="#E8FBFF"/>
<rect x="315.946" y="331.687" width="15.0268" height="15.0268" fill="#E8FBFF"/>
<rect x="195.732" y="316.66" width="15.0268" height="15.0268" fill="#FF8000"/>
<rect x="180.705" y="316.66" width="15.0268" height="15.0268" fill="#FFDCDC"/>
<rect x="285.892" y="316.66" width="15.0268" height="15.0268" fill="#FF8000"/>
<rect x="300.919" y="316.66" width="15.0268" height="15.0268" fill="#FF8000"/>
<rect x="165.678" y="316.66" width="15.0268" height="15.0268" fill="#FF8000"/>
<rect x="150.652" y="316.66" width="15.0268" height="15.0268" fill="#E8FBFF"/>
<rect x="315.946" y="316.66" width="15.0268" height="15.0268" fill="#E8FBFF"/>
<rect x="195.732" y="301.633" width="15.0268" height="15.0268" fill="#FF8000"/>
<rect x="180.705" y="301.633" width="15.0268" height="15.0268" fill="#FFDCDC"/>
<rect x="285.892" y="301.633" width="15.0268" height="15.0268" fill="#FF8000"/>
<rect x="300.919" y="301.633" width="15.0268" height="15.0268" fill="#FF8000"/>
<rect x="165.678" y="301.633" width="15.0268" height="15.0268" fill="#FF8000"/>
<rect x="150.652" y="301.633" width="15.0268" height="15.0268" fill="#E8FBFF"/>
<rect x="315.946" y="301.633" width="15.0268" height="15.0268" fill="#E8FBFF"/>
<rect x="195.732" y="286.606" width="15.0268" height="15.0268" fill="#FF8000"/>
<rect x="180.705" y="286.606" width="15.0268" height="15.0268" fill="#FF8000"/>
<rect x="285.892" y="286.606" width="15.0268" height="15.0268" fill="#FF8000"/>
<rect x="300.919" y="286.606" width="15.0268" height="15.0268" fill="#FF8000"/>
<rect x="165.678" y="286.606" width="15.0268" height="15.0268" fill="#FF8000"/>
<rect x="150.652" y="286.606" width="15.0268" height="15.0268" fill="#E8FBFF"/>
<rect x="315.946" y="286.606" width="15.0268" height="15.0268" fill="#E8FBFF"/>
<rect x="195.732" y="271.58" width="15.0268" height="15.0268" fill="#FF8000"/>
<rect x="180.705" y="271.58" width="15.0268" height="15.0268" fill="#FF8000"/>
<rect x="285.892" y="271.58" width="15.0268" height="15.0268" fill="#FF8000"/>
<rect x="300.919" y="271.58" width="15.0268" height="15.0268" fill="#FF8000"/>
<rect x="165.678" y="271.58" width="15.0268" height="15.0268" fill="#FF8000"/>
<rect x="150.652" y="271.58" width="15.0268" height="15.0268" fill="#E8FBFF"/>
<rect x="315.946" y="271.58" width="15.0268" height="15.0268" fill="#E8FBFF"/>
<rect x="195.732" y="136.339" width="15.0268" height="15.0268" fill="#1D0330"/>
<rect x="180.705" y="376.767" width="15.0268" height="15.0268" fill="#1D0330"/>
<rect x="180.705" y="226.5" width="15.0268" height="15.0268" fill="#1D0330"/>
<rect x="300.919" y="376.767" width="15.0268" height="15.0268" fill="#1D0330"/>
<rect x="300.919" y="226.5" width="15.0268" height="15.0268" fill="#1D0330"/>
<rect x="165.678" y="376.767" width="15.0268" height="15.0268" fill="#1D0330"/>
<rect x="165.678" y="226.5" width="15.0268" height="15.0268" fill="#1D0330"/>
<rect x="285.892" y="376.767" width="15.0268" height="15.0268" fill="#1D0330"/>
<rect x="285.892" y="226.5" width="15.0268" height="15.0268" fill="#1D0330"/>
<rect x="150.652" y="361.74" width="15.0268" height="15.0268" fill="#1D0330"/>
<rect x="150.652" y="256.052" width="15.0268" height="15.0268" fill="#1D0330"/>
<rect x="315.946" y="361.74" width="15.0268" height="15.0268" fill="#1D0330"/>
<rect x="315.946" y="256.052" width="15.0268" height="15.0268" fill="#1D0330"/>
<rect x="330.973" y="331.687" width="15.0268" height="15.0268" fill="#1D0330"/>
<rect x="135.625" y="331.687" width="15.0268" height="15.0268" fill="#1D0330"/>
<rect x="195.732" y="211.473" width="15.0268" height="15.0268" fill="#1D0330"/>
<rect x="270.866" y="211.473" width="15.0268" height="15.0268" fill="#1D0330"/>
<rect x="330.973" y="301.633" width="15.0268" height="15.0268" fill="#1D0330"/>
<rect x="135.625" y="301.633" width="15.0268" height="15.0268" fill="#1D0330"/>
<rect x="195.732" y="181.419" width="15.0268" height="15.0268" fill="#1D0330"/>
<rect x="270.866" y="181.419" width="15.0268" height="15.0268" fill="#1D0330"/>
<rect x="150.652" y="346.713" width="15.0268" height="15.0268" fill="#1D0330"/>
<rect x="150.652" y="241.026" width="15.0268" height="15.0268" fill="#1D0330"/>
<rect x="315.946" y="346.713" width="15.0268" height="15.0268" fill="#1D0330"/>
<rect x="315.946" y="241.026" width="15.0268" height="15.0268" fill="#1D0330"/>
<rect x="330.973" y="316.66" width="15.0268" height="15.0268" fill="#1D0330"/>
<rect x="135.625" y="316.66" width="15.0268" height="15.0268" fill="#1D0330"/>
<rect x="195.732" y="196.446" width="15.0268" height="15.0268" fill="#1D0330"/>
<rect x="270.866" y="196.446" width="15.0268" height="15.0268" fill="#1D0330"/>
<rect x="330.973" y="286.606" width="15.0268" height="15.0268" fill="#1D0330"/>
<rect x="135.625" y="286.606" width="15.0268" height="15.0268" fill="#1D0330"/>
<rect x="195.732" y="166.393" width="15.0268" height="15.0268" fill="#1D0330"/>
<rect x="180.705" y="151.366" width="15.0268" height="15.0268" fill="#1D0330"/>
<rect x="285.892" y="151.366" width="15.0268" height="15.0268" fill="#1D0330"/>
<rect x="270.866" y="166.393" width="15.0268" height="15.0268" fill="#1D0330"/>
<rect x="330.973" y="271.58" width="15.0268" height="15.0268" fill="#1D0330"/>
<rect x="135.625" y="271.58" width="15.0268" height="15.0268" fill="#1D0330"/>
<rect x="210.759" y="391.793" width="15.0268" height="15.0268" fill="#1D0330"/>
<rect x="210.759" y="361.74" width="15.0268" height="15.0268" fill="#FF8000"/>
<rect x="210.759" y="376.767" width="15.0268" height="15.0268" fill="#E8FBFF"/>
<rect x="210.759" y="256.553" width="15.0268" height="15.0268" fill="#E8FBFF"/>
<rect x="180.705" y="256.553" width="15.0268" height="15.0268" fill="#E8FBFF"/>
<rect x="300.919" y="256.553" width="15.0268" height="15.0268" fill="#E8FBFF"/>
<rect x="210.759" y="241.526" width="15.0268" height="15.0268" fill="#E8FBFF"/>
<rect x="180.705" y="241.526" width="15.0268" height="15.0268" fill="#E8FBFF"/>
<rect x="300.919" y="241.526" width="15.0268" height="15.0268" fill="#E8FBFF"/>
<rect x="210.759" y="226.5" width="15.0268" height="15.0268" fill="#E8FBFF"/>
<rect x="210.759" y="211.473" width="15.0268" height="15.0268" fill="#E8FBFF"/>
<rect x="210.759" y="196.446" width="15.0268" height="15.0268" fill="#E8FBFF"/>
<rect x="210.759" y="181.419" width="15.0268" height="15.0268" fill="#E8FBFF"/>
<rect x="195.732" y="151.366" width="15.0268" height="15.0268" fill="#E8FBFF"/>
<rect x="270.866" y="151.366" width="15.0268" height="15.0268" fill="#E8FBFF"/>
<rect x="210.759" y="346.713" width="15.0268" height="15.0268" fill="#FF8000"/>
<rect x="210.759" y="331.687" width="15.0268" height="15.0268" fill="#FF8000"/>
<rect x="210.759" y="316.66" width="15.0268" height="15.0268" fill="#FF8000"/>
<rect x="210.759" y="301.633" width="15.0268" height="15.0268" fill="#FF8000"/>
<rect x="210.759" y="286.606" width="15.0268" height="15.0268" fill="#FF8000"/>
<rect x="210.759" y="271.58" width="15.0268" height="15.0268" fill="#FF8000"/>
<rect x="210.759" y="151.366" width="15.0268" height="15.0268" fill="#F63E00"/>
<rect x="210.759" y="166.393" width="15.0268" height="15.0268" fill="#F63E00"/>
<rect x="210.759" y="121.312" width="15.0268" height="15.0268" fill="#F63E00"/>
<rect x="210.759" y="136.339" width="15.0268" height="15.0268" fill="#1D0330"/>
<rect x="225.785" y="391.793" width="15.0268" height="15.0268" fill="#1D0330"/>
<rect x="225.785" y="361.74" width="15.0268" height="15.0268" fill="#FF8000"/>
<rect x="225.785" y="376.767" width="15.0268" height="15.0268" fill="#E8FBFF"/>
<rect x="225.785" y="256.553" width="15.0268" height="15.0268" fill="#E8FBFF"/>
<rect x="225.785" y="241.526" width="15.0268" height="15.0268" fill="#E8FBFF"/>
<rect x="225.785" y="226.5" width="15.0268" height="15.0268" fill="#E8FBFF"/>
<rect x="225.785" y="211.473" width="15.0268" height="15.0268" fill="#E8FBFF"/>
<rect x="225.785" y="196.446" width="15.0268" height="15.0268" fill="#E8FBFF"/>
<rect x="225.785" y="181.419" width="15.0268" height="15.0268" fill="#E8FBFF"/>
<rect x="225.785" y="346.713" width="15.0268" height="15.0268" fill="#FF8000"/>
<rect x="225.785" y="331.687" width="15.0268" height="15.0268" fill="#FF8000"/>
<rect x="225.785" y="316.66" width="15.0268" height="15.0268" fill="#FF8000"/>
<rect x="225.785" y="301.633" width="15.0268" height="15.0268" fill="#FF8000"/>
<rect x="225.785" y="286.606" width="15.0268" height="15.0268" fill="#FF8000"/>
<rect x="225.785" y="271.58" width="15.0268" height="15.0268" fill="#FF8000"/>
<rect x="225.785" y="151.366" width="15.0268" height="15.0268" fill="#F63E00"/>
<rect x="225.785" y="166.393" width="15.0268" height="15.0268" fill="#F63E00"/>
<rect x="225.785" y="121.312" width="15.0268" height="15.0268" fill="#F63E00"/>
<rect x="225.785" y="136.339" width="15.0268" height="15.0268" fill="#1D0330"/>
<rect x="240.812" y="391.793" width="15.0268" height="15.0268" fill="#1D0330"/>
<rect x="240.812" y="361.74" width="15.0268" height="15.0268" fill="#FF8000"/>
<rect x="240.812" y="376.767" width="15.0268" height="15.0268" fill="#E8FBFF"/>
<rect x="240.812" y="256.553" width="15.0268" height="15.0268" fill="#E8FBFF"/>
<rect x="240.812" y="241.526" width="15.0268" height="15.0268" fill="#E8FBFF"/>
<rect x="240.812" y="226.5" width="15.0268" height="15.0268" fill="#E8FBFF"/>
<rect x="240.812" y="211.473" width="15.0268" height="15.0268" fill="#E8FBFF"/>
<rect x="240.812" y="196.446" width="15.0268" height="15.0268" fill="#E8FBFF"/>
<rect x="240.812" y="181.419" width="15.0268" height="15.0268" fill="#E8FBFF"/>
<rect x="240.812" y="346.713" width="15.0268" height="15.0268" fill="#FF8000"/>
<rect x="240.812" y="331.687" width="15.0268" height="15.0268" fill="#FF8000"/>
<rect x="240.812" y="316.66" width="15.0268" height="15.0268" fill="#FF8000"/>
<rect x="240.812" y="301.633" width="15.0268" height="15.0268" fill="#FF8000"/>
<rect x="240.812" y="286.606" width="15.0268" height="15.0268" fill="#FF8000"/>
<rect x="240.812" y="271.58" width="15.0268" height="15.0268" fill="#FF8000"/>
<rect x="240.812" y="151.366" width="15.0268" height="15.0268" fill="#F63E00"/>
<rect x="240.812" y="166.393" width="15.0268" height="15.0268" fill="#F63E00"/>
<rect x="240.812" y="121.312" width="15.0268" height="15.0268" fill="#F63E00"/>
<rect x="240.812" y="136.339" width="15.0268" height="15.0268" fill="#1D0330"/>
<rect x="255.839" y="391.793" width="15.0268" height="15.0268" fill="#1D0330"/>
<rect x="255.839" y="361.74" width="15.0268" height="15.0268" fill="#FF8000"/>
<rect x="255.839" y="376.767" width="15.0268" height="15.0268" fill="#E8FBFF"/>
<rect x="255.839" y="256.553" width="15.0268" height="15.0268" fill="#E8FBFF"/>
<rect x="255.839" y="241.526" width="15.0268" height="15.0268" fill="#E8FBFF"/>
<rect x="255.839" y="226.5" width="15.0268" height="15.0268" fill="#E8FBFF"/>
<rect x="255.839" y="211.473" width="15.0268" height="15.0268" fill="#E8FBFF"/>
<rect x="255.839" y="196.446" width="15.0268" height="15.0268" fill="#E8FBFF"/>
<rect x="255.839" y="181.419" width="15.0268" height="15.0268" fill="#E8FBFF"/>
<rect x="255.839" y="346.713" width="15.0268" height="15.0268" fill="#FF8000"/>
<rect x="255.839" y="331.687" width="15.0268" height="15.0268" fill="#FF8000"/>
<rect x="255.839" y="316.66" width="15.0268" height="15.0268" fill="#FF8000"/>
<rect x="255.839" y="301.633" width="15.0268" height="15.0268" fill="#FF8000"/>
<rect x="255.839" y="286.606" width="15.0268" height="15.0268" fill="#FF8000"/>
<rect x="255.839" y="271.58" width="15.0268" height="15.0268" fill="#FF8000"/>
<rect x="255.839" y="151.366" width="15.0268" height="15.0268" fill="#F63E00"/>
<rect x="255.839" y="166.393" width="15.0268" height="15.0268" fill="#F63E00"/>
<rect x="255.839" y="121.312" width="15.0268" height="15.0268" fill="#F63E00"/>
<rect x="255.839" y="136.339" width="15.0268" height="15.0268" fill="#1D0330"/>
<rect x="270.866" y="391.793" width="15.0268" height="15.0268" fill="#1D0330"/>
<rect x="270.866" y="361.74" width="15.0268" height="15.0268" fill="#FF8000"/>
<rect x="270.866" y="376.767" width="15.0268" height="15.0268" fill="#E8FBFF"/>
<rect x="270.866" y="256.553" width="15.0268" height="15.0268" fill="#E8FBFF"/>
<rect x="270.866" y="241.526" width="15.0268" height="15.0268" fill="#E8FBFF"/>
<rect x="270.866" y="226.5" width="15.0268" height="15.0268" fill="#E8FBFF"/>
<rect x="270.866" y="346.713" width="15.0268" height="15.0268" fill="#FF8000"/>
<rect x="270.866" y="331.687" width="15.0268" height="15.0268" fill="#FF8000"/>
<rect x="270.866" y="316.66" width="15.0268" height="15.0268" fill="#FF8000"/>
<rect x="270.866" y="301.633" width="15.0268" height="15.0268" fill="#FF8000"/>
<rect x="270.866" y="286.606" width="15.0268" height="15.0268" fill="#FF8000"/>
<rect x="270.866" y="271.58" width="15.0268" height="15.0268" fill="#FF8000"/>
<rect x="270.866" y="136.339" width="15.0268" height="15.0268" fill="#1D0330"/>
<rect x="285.892" y="106.286" width="15.0268" height="15.0268" fill="#FF8000"/>
<rect x="180.705" y="91.2588" width="15.0268" height="15.0268" fill="#FF8000"/>
<rect x="225.785" y="76.2319" width="15.0268" height="15.0268" fill="#FF8000"/>
<rect x="270.866" y="61.2056" width="15.0268" height="15.0268" fill="#FF8000"/>
<rect x="195.732" y="46.1787" width="15.0268" height="15.0268" fill="#FF8000"/>
</g>
</svg>
