<svg width="482" height="482" viewBox="0 0 482 482" fill="none" xmlns="http://www.w3.org/2000/svg">
<path d="M1 1L1.00002 480.999M16 1L16 480.999M31 1L31 480.999M46 1L46 480.999M61 1L61 480.999M76 1L76 480.999M91 1L91 480.999M106 1L106 480.999M121 1L121 480.999M136 1L136 480.999M151 1L151 480.999M166 1L166 480.999M181 1L181 480.999M196 1L196 480.999M211 1L211 480.999M226 1L226 480.999M241 1L241 480.999M256 1L256 480.999M271 1L271 480.999M286 1L286 480.999M301 1L301 480.999M316 1L316 480.999M331 1L331 480.999M346 1L346 480.999M361 1L361 480.999M376 1L376 480.999M391 1L391 480.999M406 1L406 480.999M421 1L421 480.999M436 1L436 480.999M451 1L451 480.999M466 1L466 480.999M481 1L481 480.999" stroke="black" stroke-opacity="0.2"/>
<path d="M1 1H480.999M1 16H480.999M1 31H480.999M1 45.9999H480.999M1 60.9999H480.999M1 75.9999H480.999M1 90.9999H480.999M1 106H480.999M1 121H480.999M1 136H480.999M1 151H480.999M1 166H480.999M1 181H480.999M1 196H480.999M1 211H480.999M1 226H480.999M1 241H480.999M1 256H480.999M1 271H480.999M1 286H480.999M1 301H480.999M1 316H480.999M1 331H480.999M1 345.999H480.999M1 360.999H480.999M1 375.999H480.999M1 390.999H480.999M1 405.999H480.999M1 420.999H480.999M1 435.999H480.999M1 450.999H480.999M1 465.999H480.999M1 480.999H480.999" stroke="black" stroke-opacity="0.2"/>
<g style="mix-blend-mode:multiply">
<rect x="150.73" y="391" width="15.0417" height="15.0001" fill="#1D0330"/>
<rect x="150.73" y="406" width="15.0417" height="15.0001" fill="#1D0330"/>
<rect x="150.73" y="61" width="15.0417" height="15.0001" fill="#1D0330"/>
<rect x="150.73" y="76" width="15.0417" height="15.0001" fill="#1D0330"/>
<rect x="165.771" y="376" width="15.0417" height="15.0001" fill="#1D0330"/>
<rect x="165.771" y="181" width="15.0417" height="15.0001" fill="#1D0330"/>
<rect x="316.187" y="376" width="15.0417" height="15.0001" fill="#1D0330"/>
<rect x="316.187" y="181" width="15.0417" height="15.0001" fill="#1D0330"/>
<rect x="165.771" y="361" width="15.0417" height="15.0001" fill="#1D0330"/>
<rect x="165.771" y="166" width="15.0417" height="15.0001" fill="#1D0330"/>
<rect x="316.187" y="361" width="15.0417" height="15.0001" fill="#1D0330"/>
<rect x="316.187" y="166" width="15.0417" height="15.0001" fill="#1D0330"/>
<rect x="165.771" y="346" width="15.0417" height="15.0001" fill="#1D0330"/>
<rect x="165.771" y="151" width="15.0417" height="15.0001" fill="#1D0330"/>
<rect x="316.187" y="346" width="15.0417" height="15.0001" fill="#1D0330"/>
<rect x="316.187" y="151" width="15.0417" height="15.0001" fill="#1D0330"/>
<rect x="165.771" y="331" width="15.0417" height="15.0001" fill="#1D0330"/>
<rect x="165.771" y="136" width="15.0417" height="15.0001" fill="#1D0330"/>
<rect x="316.187" y="331" width="15.0417" height="15.0001" fill="#1D0330"/>
<rect x="316.187" y="136" width="15.0417" height="15.0001" fill="#1D0330"/>
<rect x="165.771" y="316" width="15.0417" height="15.0001" fill="#1D0330"/>
<rect x="165.771" y="121" width="15.0417" height="15.0001" fill="#1D0330"/>
<rect x="316.187" y="316" width="15.0417" height="15.0001" fill="#1D0330"/>
<rect x="316.187" y="121" width="15.0417" height="15.0001" fill="#1D0330"/>
<rect x="165.771" y="301" width="15.0417" height="15.0001" fill="#1D0330"/>
<rect x="165.771" y="106" width="15.0417" height="15.0001" fill="#1D0330"/>
<rect x="316.187" y="301" width="15.0417" height="15.0001" fill="#1D0330"/>
<rect x="316.187" y="106" width="15.0417" height="15.0001" fill="#1D0330"/>
<rect x="165.771" y="286" width="15.0417" height="15.0001" fill="#1D0330"/>
<rect x="165.771" y="91" width="15.0417" height="15.0001" fill="#1D0330"/>
<rect x="316.187" y="286" width="15.0417" height="15.0001" fill="#1D0330"/>
<rect x="316.187" y="91" width="15.0417" height="15.0001" fill="#1D0330"/>
<rect x="180.813" y="271" width="15.0417" height="15.0001" fill="#1D0330"/>
<rect x="180.813" y="196" width="15.0417" height="15.0001" fill="#1D0330"/>
<rect x="195.854" y="255.999" width="15.0417" height="15.0001" fill="#1D0330"/>
<rect x="210.896" y="241" width="15.0417" height="15.0001" fill="#1D0330"/>
<rect x="210.896" y="226" width="15.0417" height="15.0001" fill="#1D0330"/>
<rect x="195.854" y="211" width="15.0417" height="15.0001" fill="#1D0330"/>
<rect x="210.896" y="106" width="15.0417" height="15.0001" fill="#FF8000"/>
<rect x="301.145" y="271" width="15.0417" height="15.0001" fill="#1D0330"/>
<rect x="301.145" y="196" width="15.0417" height="15.0001" fill="#1D0330"/>
<rect x="286.104" y="255.999" width="15.0417" height="15.0001" fill="#1D0330"/>
<rect x="271.062" y="241" width="15.0417" height="15.0001" fill="#1D0330"/>
<rect x="271.062" y="226" width="15.0417" height="15.0001" fill="#1D0330"/>
<rect x="286.104" y="211" width="15.0417" height="15.0001" fill="#1D0330"/>
<rect x="271.062" y="106" width="15.0417" height="15.0001" fill="#FF8000"/>
<rect x="240.979" y="106" width="15.0417" height="15.0001" fill="#FF8000"/>
<rect x="286.104" y="376" width="15.0417" height="15.0001" fill="#F27300"/>
<rect x="195.854" y="376" width="15.0417" height="15.0001" fill="#F27300"/>
<rect x="225.938" y="376" width="15.0417" height="15.0001" fill="#F27300"/>
<rect x="210.896" y="361" width="15.0417" height="15.0001" fill="#F27300"/>
<rect x="240.979" y="361" width="15.0417" height="15.0001" fill="#F27300"/>
<rect x="225.938" y="361" width="15.0417" height="15.0001" fill="#F27300"/>
<rect x="271.062" y="361" width="15.0417" height="15.0001" fill="#F27300"/>
<rect x="256.021" y="346" width="15.0417" height="15.0001" fill="#F27300"/>
<rect x="225.938" y="346" width="15.0417" height="15.0001" fill="#F27300"/>
<rect x="240.979" y="331" width="15.0417" height="15.0001" fill="#F27300"/>
<rect x="240.979" y="301" width="15.0417" height="15.0001" fill="#E8FFFB"/>
<rect x="240.979" y="241" width="15.0417" height="15.0001" fill="#F27300"/>
<rect x="256.021" y="376" width="15.0417" height="15.0001" fill="#F27300"/>
<rect x="271.062" y="391" width="15.0417" height="15.0001" fill="#1D0330"/>
<rect x="271.062" y="406" width="15.0417" height="15.0001" fill="#1D0330"/>
<rect x="271.062" y="61" width="15.0417" height="15.0001" fill="#1D0330"/>
<rect x="256.021" y="391" width="15.0417" height="15.0001" fill="#1D0330"/>
<rect x="256.021" y="406" width="15.0417" height="15.0001" fill="#1D0330"/>
<rect x="256.021" y="61" width="15.0417" height="15.0001" fill="#1D0330"/>
<rect x="240.979" y="391" width="15.0417" height="15.0001" fill="#1D0330"/>
<rect x="240.979" y="406" width="15.0417" height="15.0001" fill="#1D0330"/>
<rect x="240.979" y="61" width="15.0417" height="15.0001" fill="#1D0330"/>
<rect x="240.979" y="136" width="15.0417" height="15.0001" fill="#FF8000"/>
<rect x="256.021" y="121" width="15.0417" height="15.0001" fill="#FF8000"/>
<rect x="225.938" y="121" width="15.0417" height="15.0001" fill="#FF8000"/>
<rect x="256.021" y="76" width="15.0417" height="15.0001" fill="#1D0330"/>
<rect x="256.021" y="91" width="15.0417" height="15.0001" fill="#E8FFFB"/>
<rect x="256.021" y="106" width="15.0417" height="15.0001" fill="#F27300"/>
<rect x="256.021" y="151" width="15.0417" height="15.0001" fill="#E8FFFB"/>
<rect x="256.021" y="166" width="15.0417" height="15.0001" fill="#E8FFFB"/>
<rect x="256.021" y="181" width="15.0417" height="15.0001" fill="#E8FFFB"/>
<rect x="256.021" y="196" width="15.0417" height="15.0001" fill="#E8FFFB"/>
<rect x="256.021" y="211" width="15.0417" height="15.0001" fill="#E8FFFB"/>
<rect x="256.021" y="226" width="15.0417" height="15.0001" fill="#E8FFFB"/>
<rect x="256.021" y="255.999" width="15.0417" height="15.0001" fill="#E8FFFB"/>
<rect x="256.021" y="271" width="15.0417" height="15.0001" fill="#E8FFFB"/>
<rect x="256.021" y="286" width="15.0417" height="15.0001" fill="#E8FFFB"/>
<rect x="256.021" y="316" width="15.0417" height="15.0001" fill="#E8FFFB"/>
<rect x="240.979" y="76" width="15.0417" height="15.0001" fill="#1D0330"/>
<rect x="240.979" y="91" width="15.0417" height="15.0001" fill="#E8FFFB"/>
<rect x="240.979" y="151" width="15.0417" height="15.0001" fill="#E8FFFB"/>
<rect x="240.979" y="166" width="15.0417" height="15.0001" fill="#E8FFFB"/>
<rect x="240.979" y="181" width="15.0417" height="15.0001" fill="#E8FFFB"/>
<rect x="240.979" y="196" width="15.0417" height="15.0001" fill="#E8FFFB"/>
<rect x="240.979" y="211" width="15.0417" height="15.0001" fill="#E8FFFB"/>
<rect x="240.979" y="226" width="15.0417" height="15.0001" fill="#E8FFFB"/>
<rect x="240.979" y="255.999" width="15.0417" height="15.0001" fill="#E8FFFB"/>
<rect x="240.979" y="271" width="15.0417" height="15.0001" fill="#E8FFFB"/>
<rect x="240.979" y="286" width="15.0417" height="15.0001" fill="#F27300"/>
<rect x="240.979" y="316" width="15.0417" height="15.0001" fill="#E8FFFB"/>
<rect x="225.938" y="391" width="15.0417" height="15.0001" fill="#1D0330"/>
<rect x="225.938" y="406" width="15.0417" height="15.0001" fill="#1D0330"/>
<rect x="225.938" y="61" width="15.0417" height="15.0001" fill="#1D0330"/>
<rect x="225.938" y="76" width="15.0417" height="15.0001" fill="#1D0330"/>
<rect x="225.938" y="91" width="15.0417" height="15.0001" fill="#E8FFFB"/>
<rect x="225.938" y="106" width="15.0417" height="15.0001" fill="#F27300"/>
<rect x="240.979" y="121" width="15.0417" height="15.0001" fill="#F27300"/>
<rect x="225.938" y="136" width="15.0417" height="15.0001" fill="#E8FFFB"/>
<rect x="256.021" y="136" width="15.0417" height="15.0001" fill="#E8FFFB"/>
<rect x="225.938" y="151" width="15.0417" height="15.0001" fill="#E8FFFB"/>
<rect x="225.938" y="166" width="15.0417" height="15.0001" fill="#E8FFFB"/>
<rect x="225.938" y="181" width="15.0417" height="15.0001" fill="#E8FFFB"/>
<rect x="225.938" y="196" width="15.0417" height="15.0001" fill="#E8FFFB"/>
<rect x="225.938" y="211" width="15.0417" height="15.0001" fill="#E8FFFB"/>
<rect x="225.938" y="226" width="15.0417" height="15.0001" fill="#E8FFFB"/>
<rect x="225.938" y="255.999" width="15.0417" height="15.0001" fill="#E8FFFB"/>
<rect x="210.896" y="255.999" width="15.0417" height="15.0001" fill="#E8FFFB"/>
<rect x="271.062" y="255.999" width="15.0417" height="15.0001" fill="#E8FFFB"/>
<rect x="256.021" y="241" width="15.0417" height="15.0001" fill="#E8FFFB"/>
<rect x="225.938" y="241" width="15.0417" height="15.0001" fill="#E8FFFB"/>
<rect x="240.979" y="346" width="15.0417" height="15.0001" fill="#FF8000"/>
<rect x="225.938" y="361" width="15.0417" height="15.0001" fill="#FF8000"/>
<rect x="256.021" y="361" width="15.0417" height="15.0001" fill="#FF8000"/>
<rect x="271.062" y="376" width="15.0417" height="15.0001" fill="#FF8000"/>
<rect x="240.979" y="376" width="15.0417" height="15.0001" fill="#FF8000"/>
<rect x="210.896" y="376" width="15.0417" height="15.0001" fill="#FF8000"/>
<rect x="225.938" y="271" width="15.0417" height="15.0001" fill="#E8FFFB"/>
<rect x="225.938" y="286" width="15.0417" height="15.0001" fill="#E8FFFB"/>
<rect x="225.938" y="301" width="15.0417" height="15.0001" fill="#E8FFFB"/>
<rect x="301.145" y="301" width="15.0417" height="15.0001" fill="#E8FFFB"/>
<rect x="301.145" y="331" width="15.0417" height="15.0001" fill="#E8FFFB"/>
<rect x="225.938" y="331" width="15.0417" height="15.0001" fill="#E8FFFB"/>
<rect x="225.938" y="316" width="15.0417" height="15.0001" fill="#E8FFFB"/>
<rect x="271.062" y="76" width="15.0417" height="15.0001" fill="#1D0330"/>
<rect x="271.062" y="91" width="15.0417" height="15.0001" fill="#E8FFFB"/>
<rect x="271.062" y="151" width="15.0417" height="15.0001" fill="#E8FFFB"/>
<rect x="271.062" y="166" width="15.0417" height="15.0001" fill="#E8FFFB"/>
<rect x="271.062" y="181" width="15.0417" height="15.0001" fill="#E8FFFB"/>
<rect x="271.062" y="196" width="15.0417" height="15.0001" fill="#E8FFFB"/>
<rect x="271.062" y="211" width="15.0417" height="15.0001" fill="#E8FFFB"/>
<rect x="271.062" y="271" width="15.0417" height="15.0001" fill="#E8FFFB"/>
<rect x="271.062" y="286" width="15.0417" height="15.0001" fill="#E8FFFB"/>
<rect x="271.062" y="316" width="15.0417" height="15.0001" fill="#E8FFFB"/>
<rect x="165.771" y="391" width="15.0417" height="15.0001" fill="#1D0330"/>
<rect x="165.771" y="406" width="15.0417" height="15.0001" fill="#1D0330"/>
<rect x="165.771" y="61" width="15.0417" height="15.0001" fill="#1D0330"/>
<rect x="165.771" y="76" width="15.0417" height="15.0001" fill="#1D0330"/>
<rect x="286.104" y="391" width="15.0417" height="15.0001" fill="#1D0330"/>
<rect x="286.104" y="406" width="15.0417" height="15.0001" fill="#1D0330"/>
<rect x="286.104" y="61" width="15.0417" height="15.0001" fill="#1D0330"/>
<rect x="286.104" y="76" width="15.0417" height="15.0001" fill="#1D0330"/>
<rect x="286.104" y="91" width="15.0417" height="15.0001" fill="#E8FFFB"/>
<rect x="286.104" y="151" width="15.0417" height="15.0001" fill="#E8FFFB"/>
<rect x="286.104" y="166" width="15.0417" height="15.0001" fill="#E8FFFB"/>
<rect x="286.104" y="181" width="15.0417" height="15.0001" fill="#E8FFFB"/>
<rect x="286.104" y="196" width="15.0417" height="15.0001" fill="#E8FFFB"/>
<rect x="286.104" y="271" width="15.0417" height="15.0001" fill="#E8FFFB"/>
<rect x="286.104" y="286" width="15.0417" height="15.0001" fill="#E8FFFB"/>
<rect x="286.104" y="316" width="15.0417" height="15.0001" fill="#E8FFFB"/>
<rect x="180.813" y="391" width="15.0417" height="15.0001" fill="#1D0330"/>
<rect x="180.813" y="406" width="15.0417" height="15.0001" fill="#1D0330"/>
<rect x="180.813" y="61" width="15.0417" height="15.0001" fill="#1D0330"/>
<rect x="180.813" y="76" width="15.0417" height="15.0001" fill="#1D0330"/>
<rect x="180.813" y="91" width="15.0417" height="15.0001" fill="#E8FFFB"/>
<rect x="180.813" y="151" width="15.0417" height="15.0001" fill="#E8FFFB"/>
<rect x="180.813" y="166" width="15.0417" height="15.0001" fill="#E8FFFB"/>
<rect x="180.813" y="181" width="15.0417" height="15.0001" fill="#E8FFFB"/>
<rect x="180.813" y="286" width="15.0417" height="15.0001" fill="#E8FFFB"/>
<rect x="180.813" y="301" width="15.0417" height="15.0001" fill="#E8FFFB"/>
<rect x="256.021" y="301" width="15.0417" height="15.0001" fill="#E8FFFB"/>
<rect x="256.021" y="331" width="15.0417" height="15.0001" fill="#E8FFFB"/>
<rect x="180.813" y="331" width="15.0417" height="15.0001" fill="#E8FFFB"/>
<rect x="180.813" y="346" width="15.0417" height="15.0001" fill="#E8FFFB"/>
<rect x="180.813" y="361" width="15.0417" height="15.0001" fill="#E8FFFB"/>
<rect x="180.813" y="376" width="15.0417" height="15.0001" fill="#E8FFFB"/>
<rect x="301.145" y="376" width="15.0417" height="15.0001" fill="#E8FFFB"/>
<rect x="286.104" y="361" width="15.0417" height="15.0001" fill="#E8FFFB"/>
<rect x="271.062" y="346" width="15.0417" height="15.0001" fill="#E8FFFB"/>
<rect x="180.813" y="316" width="15.0417" height="15.0001" fill="#E8FFFB"/>
<rect x="301.145" y="391" width="15.0417" height="15.0001" fill="#1D0330"/>
<rect x="301.145" y="406" width="15.0417" height="15.0001" fill="#1D0330"/>
<rect x="301.145" y="61" width="15.0417" height="15.0001" fill="#1D0330"/>
<rect x="301.145" y="76" width="15.0417" height="15.0001" fill="#1D0330"/>
<rect x="301.145" y="91" width="15.0417" height="15.0001" fill="#E8FFFB"/>
<rect x="301.145" y="151" width="15.0417" height="15.0001" fill="#E8FFFB"/>
<rect x="301.145" y="106" width="15.0417" height="15.0001" fill="#E8FFFB"/>
<rect x="286.104" y="106" width="15.0417" height="15.0001" fill="#E8FFFB"/>
<rect x="195.854" y="106" width="15.0417" height="15.0001" fill="#E8FFFB"/>
<rect x="180.813" y="106" width="15.0417" height="15.0001" fill="#E8FFFB"/>
<rect x="301.145" y="166" width="15.0417" height="15.0001" fill="#E8FFFB"/>
<rect x="301.145" y="121" width="15.0417" height="15.0001" fill="#E8FFFB"/>
<rect x="286.104" y="121" width="15.0417" height="15.0001" fill="#E8FFFB"/>
<rect x="195.854" y="121" width="15.0417" height="15.0001" fill="#E8FFFB"/>
<rect x="210.896" y="121" width="15.0417" height="15.0001" fill="#E8FFFB"/>
<rect x="271.062" y="121" width="15.0417" height="15.0001" fill="#E8FFFB"/>
<rect x="180.813" y="121" width="15.0417" height="15.0001" fill="#E8FFFB"/>
<rect x="301.145" y="181" width="15.0417" height="15.0001" fill="#E8FFFB"/>
<rect x="301.145" y="136" width="15.0417" height="15.0001" fill="#E8FFFB"/>
<rect x="286.104" y="136" width="15.0417" height="15.0001" fill="#E8FFFB"/>
<rect x="195.854" y="136" width="15.0417" height="15.0001" fill="#E8FFFB"/>
<rect x="210.896" y="136" width="15.0417" height="15.0001" fill="#E8FFFB"/>
<rect x="271.062" y="136" width="15.0417" height="15.0001" fill="#E8FFFB"/>
<rect x="180.813" y="136" width="15.0417" height="15.0001" fill="#E8FFFB"/>
<rect x="301.145" y="286" width="15.0417" height="15.0001" fill="#E8FFFB"/>
<rect x="301.145" y="316" width="15.0417" height="15.0001" fill="#E8FFFB"/>
<rect x="195.854" y="391" width="15.0417" height="15.0001" fill="#1D0330"/>
<rect x="195.854" y="406" width="15.0417" height="15.0001" fill="#1D0330"/>
<rect x="195.854" y="61" width="15.0417" height="15.0001" fill="#1D0330"/>
<rect x="195.854" y="76" width="15.0417" height="15.0001" fill="#1D0330"/>
<rect x="195.854" y="91" width="15.0417" height="15.0001" fill="#E8FFFB"/>
<rect x="195.854" y="151" width="15.0417" height="15.0001" fill="#E8FFFB"/>
<rect x="195.854" y="166" width="15.0417" height="15.0001" fill="#E8FFFB"/>
<rect x="195.854" y="181" width="15.0417" height="15.0001" fill="#E8FFFB"/>
<rect x="195.854" y="196" width="15.0417" height="15.0001" fill="#E8FFFB"/>
<rect x="195.854" y="271" width="15.0417" height="15.0001" fill="#E8FFFB"/>
<rect x="195.854" y="286" width="15.0417" height="15.0001" fill="#E8FFFB"/>
<rect x="195.854" y="301" width="15.0417" height="15.0001" fill="#E8FFFB"/>
<rect x="271.062" y="301" width="15.0417" height="15.0001" fill="#E8FFFB"/>
<rect x="271.062" y="331" width="15.0417" height="15.0001" fill="#E8FFFB"/>
<rect x="195.854" y="331" width="15.0417" height="15.0001" fill="#E8FFFB"/>
<rect x="195.854" y="346" width="15.0417" height="15.0001" fill="#E8FFFB"/>
<rect x="195.854" y="361" width="15.0417" height="15.0001" fill="#E8FFFB"/>
<rect x="301.145" y="361" width="15.0417" height="15.0001" fill="#E8FFFB"/>
<rect x="286.104" y="346" width="15.0417" height="15.0001" fill="#E8FFFB"/>
<rect x="195.854" y="316" width="15.0417" height="15.0001" fill="#E8FFFB"/>
<rect x="316.187" y="391" width="15.0417" height="15.0001" fill="#1D0330"/>
<rect x="316.187" y="406" width="15.0417" height="15.0001" fill="#1D0330"/>
<rect x="316.187" y="61" width="15.0417" height="15.0001" fill="#1D0330"/>
<rect x="316.187" y="76" width="15.0417" height="15.0001" fill="#1D0330"/>
<rect x="210.896" y="391" width="15.0417" height="15.0001" fill="#1D0330"/>
<rect x="210.896" y="406" width="15.0417" height="15.0001" fill="#1D0330"/>
<rect x="210.896" y="61" width="15.0417" height="15.0001" fill="#1D0330"/>
<rect x="210.896" y="76" width="15.0417" height="15.0001" fill="#1D0330"/>
<rect x="210.896" y="91" width="15.0417" height="15.0001" fill="#E8FFFB"/>
<rect x="210.896" y="151" width="15.0417" height="15.0001" fill="#E8FFFB"/>
<rect x="210.896" y="166" width="15.0417" height="15.0001" fill="#E8FFFB"/>
<rect x="210.896" y="181" width="15.0417" height="15.0001" fill="#E8FFFB"/>
<rect x="210.896" y="196" width="15.0417" height="15.0001" fill="#E8FFFB"/>
<rect x="210.896" y="211" width="15.0417" height="15.0001" fill="#E8FFFB"/>
<rect x="210.896" y="271" width="15.0417" height="15.0001" fill="#E8FFFB"/>
<rect x="210.896" y="286" width="15.0417" height="15.0001" fill="#E8FFFB"/>
<rect x="210.896" y="301" width="15.0417" height="15.0001" fill="#E8FFFB"/>
<rect x="286.104" y="301" width="15.0417" height="15.0001" fill="#E8FFFB"/>
<rect x="286.104" y="331" width="15.0417" height="15.0001" fill="#E8FFFB"/>
<rect x="210.896" y="331" width="15.0417" height="15.0001" fill="#E8FFFB"/>
<rect x="210.896" y="346" width="15.0417" height="15.0001" fill="#E8FFFB"/>
<rect x="301.145" y="346" width="15.0417" height="15.0001" fill="#E8FFFB"/>
<rect x="210.896" y="316" width="15.0417" height="15.0001" fill="#E8FFFB"/>
<rect x="331.228" y="391" width="15.0417" height="15.0001" fill="#1D0330"/>
<rect x="331.228" y="406" width="15.0417" height="15.0001" fill="#1D0330"/>
<rect x="331.228" y="61" width="15.0417" height="15.0001" fill="#1D0330"/>
<rect x="331.228" y="76" width="15.0417" height="15.0001" fill="#1D0330"/>
</g>
</svg>
