<svg width="482" height="482" viewBox="0 0 482 482" fill="none" xmlns="http://www.w3.org/2000/svg">
<rect x="226" y="376" width="15" height="15" fill="#1D0330"/>
<rect x="196" y="91" width="15" height="15" fill="#1D0330"/>
<rect x="196" y="106" width="15" height="15" fill="#FFD300"/>
<rect x="196" y="121" width="15" height="15" fill="#FFD300"/>
<rect x="196" y="136" width="15" height="15" fill="#FFD300"/>
<rect x="196" y="151" width="15" height="15" fill="#FFD300"/>
<rect x="196" y="166" width="15" height="15" fill="#FFD300"/>
<rect x="196" y="181" width="15" height="15" fill="#FFD300"/>
<rect x="196" y="196" width="15" height="15" fill="#FFD300"/>
<rect x="196" y="211" width="15" height="15" fill="#FFD300"/>
<rect x="196" y="226" width="15" height="15" fill="#FFD300"/>
<rect x="196" y="241" width="15" height="15" fill="#FFD300"/>
<rect x="196" y="256" width="15" height="15" fill="#FFD300"/>
<rect x="196" y="361" width="15" height="15" fill="#FFD300"/>
<rect x="196" y="346" width="15" height="15" fill="#FFD300"/>
<rect x="286" y="376" width="15" height="15" fill="#1D0330"/>
<rect x="256" y="91" width="15" height="15" fill="#1D0330"/>
<rect x="256" y="106" width="15" height="15" fill="#FFD300"/>
<rect x="256" y="121" width="15" height="15" fill="#FFD300"/>
<rect x="256" y="136" width="15" height="15" fill="#FFD300"/>
<rect x="256" y="151" width="15" height="15" fill="#FFD300"/>
<rect x="256" y="166" width="15" height="15" fill="#FFD300"/>
<rect x="256" y="181" width="15" height="15" fill="#FFD300"/>
<rect x="256" y="196" width="15" height="15" fill="#FFD300"/>
<rect x="256" y="211" width="15" height="15" fill="#FFD300"/>
<rect x="256" y="226" width="15" height="15" fill="#FFD300"/>
<rect x="256" y="241" width="15" height="15" fill="#FFD300"/>
<rect x="256" y="256" width="15" height="15" fill="#FFD300"/>
<rect x="256" y="361" width="15" height="15" fill="#FFD300"/>
<rect x="256" y="346" width="15" height="15" fill="#FFD300"/>
<rect x="256" y="271" width="15" height="15" fill="#DFBA03"/>
<rect x="316" y="91" width="15" height="15" fill="#1D0330"/>
<rect x="316" y="106" width="15" height="15" fill="#DFBA03"/>
<rect x="316" y="121" width="15" height="15" fill="#DFBA03"/>
<rect x="316" y="136" width="15" height="15" fill="#DFBA03"/>
<rect x="316" y="151" width="15" height="15" fill="#DFBA03"/>
<rect x="316" y="166" width="15" height="15" fill="#DFBA03"/>
<rect x="316" y="181" width="15" height="15" fill="#DFBA03"/>
<rect x="316" y="196" width="15" height="15" fill="#DFBA03"/>
<rect x="316" y="211" width="15" height="15" fill="#DFBA03"/>
<rect x="211" y="376" width="15" height="15" fill="#1D0330"/>
<rect x="181" y="91" width="15" height="15" fill="#1D0330"/>
<rect x="181" y="106" width="15" height="15" fill="#FFD300"/>
<rect x="181" y="121" width="15" height="15" fill="#FFD300"/>
<rect x="181" y="136" width="15" height="15" fill="#FFD300"/>
<rect x="181" y="151" width="15" height="15" fill="#FFD300"/>
<rect x="181" y="166" width="15" height="15" fill="#FFD300"/>
<rect x="181" y="181" width="15" height="15" fill="#FFD300"/>
<rect x="181" y="196" width="15" height="15" fill="#FFD300"/>
<rect x="181" y="211" width="15" height="15" fill="#FFD300"/>
<rect x="181" y="226" width="15" height="15" fill="#FFD300"/>
<rect x="181" y="241" width="15" height="15" fill="#FFD300"/>
<rect x="271" y="376" width="15" height="15" fill="#1D0330"/>
<rect x="241" y="91" width="15" height="15" fill="#1D0330"/>
<rect x="241" y="106" width="15" height="15" fill="#FFD300"/>
<rect x="241" y="121" width="15" height="15" fill="#FFD300"/>
<rect x="241" y="136" width="15" height="15" fill="#FFD300"/>
<rect x="241" y="151" width="15" height="15" fill="#FFD300"/>
<rect x="241" y="166" width="15" height="15" fill="#FFD300"/>
<rect x="241" y="181" width="15" height="15" fill="#FFD300"/>
<rect x="241" y="196" width="15" height="15" fill="#FFD300"/>
<rect x="241" y="286" width="15" height="15" fill="#FFD300"/>
<rect x="241" y="211" width="15" height="15" fill="#FFD300"/>
<rect x="241" y="301" width="15" height="15" fill="#FFD300"/>
<rect x="241" y="226" width="15" height="15" fill="#FFD300"/>
<rect x="241" y="241" width="15" height="15" fill="#FFD300"/>
<rect x="241" y="256" width="15" height="15" fill="#FFD300"/>
<rect x="241" y="316" width="15" height="15" fill="#FFD300"/>
<rect x="241" y="361" width="15" height="15" fill="#FFD300"/>
<rect x="241" y="346" width="15" height="15" fill="#FFD300"/>
<rect x="241" y="271" width="15" height="15" fill="#FFD300"/>
<rect x="241" y="331" width="15" height="15" fill="#FFD300"/>
<rect x="301" y="91" width="15" height="15" fill="#1D0330"/>
<rect x="301" y="106" width="15" height="15" fill="#FFD300"/>
<rect x="301" y="121" width="15" height="15" fill="#FFD300"/>
<rect x="301" y="136" width="15" height="15" fill="#FFD300"/>
<rect x="301" y="151" width="15" height="15" fill="#FFD300"/>
<rect x="301" y="166" width="15" height="15" fill="#FFD300"/>
<rect x="301" y="181" width="15" height="15" fill="#FFD300"/>
<rect x="301" y="196" width="15" height="15" fill="#FFD300"/>
<rect x="301" y="211" width="15" height="15" fill="#FFD300"/>
<rect x="301" y="226" width="15" height="15" fill="#DFBA03"/>
<rect x="196" y="376" width="15" height="15" fill="#1D0330"/>
<rect x="166" y="91" width="15" height="15" fill="#1D0330"/>
<rect x="166" y="106" width="15" height="15" fill="#FFD300"/>
<rect x="166" y="121" width="15" height="15" fill="#FFF5C3"/>
<rect x="166" y="136" width="15" height="15" fill="#FFF5C3"/>
<rect x="166" y="151" width="15" height="15" fill="#FFF5C3"/>
<rect x="166" y="166" width="15" height="15" fill="#FFF5C3"/>
<rect x="166" y="181" width="15" height="15" fill="#FFF5C3"/>
<rect x="166" y="196" width="15" height="15" fill="#FFD300"/>
<rect x="166" y="211" width="15" height="15" fill="#FFD300"/>
<rect x="166" y="226" width="15" height="15" fill="#FFD300"/>
<rect x="256" y="376" width="15" height="15" fill="#1D0330"/>
<rect x="226" y="91" width="15" height="15" fill="#1D0330"/>
<rect x="226" y="106" width="15" height="15" fill="#FFD300"/>
<rect x="226" y="121" width="15" height="15" fill="#FFD300"/>
<rect x="226" y="136" width="15" height="15" fill="#FFD300"/>
<rect x="226" y="151" width="15" height="15" fill="#FFD300"/>
<rect x="226" y="166" width="15" height="15" fill="#FFD300"/>
<rect x="226" y="181" width="15" height="15" fill="#FFD300"/>
<rect x="226" y="196" width="15" height="15" fill="#FFD300"/>
<rect x="226" y="286" width="15" height="15" fill="#FFD300"/>
<rect x="226" y="211" width="15" height="15" fill="#FFD300"/>
<rect x="226" y="301" width="15" height="15" fill="#FFD300"/>
<rect x="226" y="226" width="15" height="15" fill="#FFD300"/>
<rect x="226" y="241" width="15" height="15" fill="#FFD300"/>
<rect x="226" y="256" width="15" height="15" fill="#FFD300"/>
<rect x="226" y="316" width="15" height="15" fill="#FFD300"/>
<rect x="226" y="361" width="15" height="15" fill="#FFD300"/>
<rect x="226" y="346" width="15" height="15" fill="#FFD300"/>
<rect x="226" y="271" width="15" height="15" fill="#FFD300"/>
<rect x="226" y="331" width="15" height="15" fill="#FFD300"/>
<rect x="286" y="91" width="15" height="15" fill="#1D0330"/>
<rect x="286" y="106" width="15" height="15" fill="#FFD300"/>
<rect x="286" y="121" width="15" height="15" fill="#FFD300"/>
<rect x="286" y="136" width="15" height="15" fill="#FFD300"/>
<rect x="286" y="151" width="15" height="15" fill="#FFD300"/>
<rect x="286" y="166" width="15" height="15" fill="#FFD300"/>
<rect x="286" y="181" width="15" height="15" fill="#FFD300"/>
<rect x="286" y="196" width="15" height="15" fill="#FFD300"/>
<rect x="286" y="211" width="15" height="15" fill="#FFD300"/>
<rect x="286" y="226" width="15" height="15" fill="#FFD300"/>
<rect x="286" y="241" width="15" height="15" fill="#DFBA03"/>
<rect x="181" y="376" width="15" height="15" fill="#1D0330"/>
<rect x="151" y="91" width="15" height="15" fill="#1D0330"/>
<rect x="151" y="106" width="15" height="15" fill="#FFD300"/>
<rect x="151" y="121" width="15" height="15" fill="#FFD300"/>
<rect x="151" y="136" width="15" height="15" fill="#FFD300"/>
<rect x="151" y="151" width="15" height="15" fill="#FFD300"/>
<rect x="151" y="166" width="15" height="15" fill="#FFD300"/>
<rect x="151" y="181" width="15" height="15" fill="#FFD300"/>
<rect x="151" y="196" width="15" height="15" fill="#FFD300"/>
<rect x="151" y="211" width="15" height="15" fill="#FFD300"/>
<rect x="166" y="361" width="15" height="15" fill="#1D0330"/>
<rect x="301" y="361" width="15" height="15" fill="#1D0330"/>
<rect x="166" y="346" width="15" height="15" fill="#1D0330"/>
<rect x="181" y="331" width="15" height="15" fill="#1D0330"/>
<rect x="166" y="376" width="15" height="15" fill="#1D0330"/>
<rect x="286" y="331" width="15" height="15" fill="#1D0330"/>
<rect x="301" y="376" width="15" height="15" fill="#1D0330"/>
<rect x="301" y="346" width="15" height="15" fill="#1D0330"/>
<rect x="271" y="331" width="15" height="15" fill="#1D0330"/>
<rect x="211" y="331" width="15" height="15" fill="#1D0330"/>
<rect x="256" y="331" width="15" height="15" fill="#1D0330"/>
<rect x="256" y="316" width="15" height="15" fill="#1D0330"/>
<rect x="211" y="316" width="15" height="15" fill="#1D0330"/>
<rect x="256" y="301" width="15" height="15" fill="#1D0330"/>
<rect x="211" y="301" width="15" height="15" fill="#1D0330"/>
<rect x="256" y="286" width="15" height="15" fill="#1D0330"/>
<rect x="271" y="271" width="15" height="15" fill="#1D0330"/>
<rect x="271" y="286" width="15" height="15" fill="#1D0330"/>
<rect x="286" y="271" width="15" height="15" fill="#1D0330"/>
<rect x="286" y="256" width="15" height="15" fill="#1D0330"/>
<rect x="301" y="256" width="15" height="15" fill="#1D0330"/>
<rect x="301" y="241" width="15" height="15" fill="#1D0330"/>
<rect x="316" y="241" width="15" height="15" fill="#1D0330"/>
<rect x="316" y="226" width="15" height="15" fill="#1D0330"/>
<rect x="331" y="226" width="15" height="15" fill="#1D0330"/>
<rect x="331" y="211" width="15" height="15" fill="#1D0330"/>
<rect x="331" y="196" width="15" height="15" fill="#1D0330"/>
<rect x="331" y="181" width="15" height="15" fill="#1D0330"/>
<rect x="331" y="166" width="15" height="15" fill="#1D0330"/>
<rect x="331" y="151" width="15" height="15" fill="#1D0330"/>
<rect x="331" y="136" width="15" height="15" fill="#1D0330"/>
<rect x="346" y="136" width="15" height="15" fill="#1D0330"/>
<rect x="361" y="136" width="15" height="15" fill="#1D0330"/>
<rect x="376" y="136" width="15" height="15" fill="#1D0330"/>
<rect x="376" y="151" width="15" height="15" fill="#1D0330"/>
<rect x="376" y="166" width="15" height="15" fill="#1D0330"/>
<rect x="376" y="181" width="15" height="15" fill="#1D0330"/>
<rect x="361" y="181" width="15" height="15" fill="#1D0330"/>
<rect x="361" y="196" width="15" height="15" fill="#1D0330"/>
<rect x="346" y="196" width="15" height="15" fill="#1D0330"/>
<rect width="15" height="15" transform="matrix(-1 0 0 1 136 136)" fill="#1D0330"/>
<rect width="15" height="15" transform="matrix(-1 0 0 1 121 136)" fill="#1D0330"/>
<rect width="15" height="15" transform="matrix(-1 0 0 1 106 136)" fill="#1D0330"/>
<rect width="15" height="15" transform="matrix(-1 0 0 1 106 151)" fill="#1D0330"/>
<rect width="15" height="15" transform="matrix(-1 0 0 1 106 166)" fill="#1D0330"/>
<rect width="15" height="15" transform="matrix(-1 0 0 1 106 181)" fill="#1D0330"/>
<rect width="15" height="15" transform="matrix(-1 0 0 1 121 181)" fill="#1D0330"/>
<rect width="15" height="15" transform="matrix(-1 0 0 1 121 196)" fill="#1D0330"/>
<rect width="15" height="15" transform="matrix(-1 0 0 1 136 196)" fill="#1D0330"/>
<rect x="331" y="121" width="15" height="15" fill="#1D0330"/>
<rect x="331" y="106" width="15" height="15" fill="#1D0330"/>
<rect x="331" y="91" width="15" height="15" fill="#1D0330"/>
<rect width="15" height="15" transform="matrix(-1 0 0 1 211 271)" fill="#1D0330"/>
<rect width="15" height="15" transform="matrix(-1 0 0 1 211 286)" fill="#1D0330"/>
<rect width="15" height="15" transform="matrix(-1 0 0 1 196 271)" fill="#1D0330"/>
<rect width="15" height="15" transform="matrix(-1 0 0 1 196 256)" fill="#1D0330"/>
<rect width="15" height="15" transform="matrix(-1 0 0 1 181 256)" fill="#1D0330"/>
<rect width="15" height="15" transform="matrix(-1 0 0 1 181 241)" fill="#1D0330"/>
<rect width="15" height="15" transform="matrix(-1 0 0 1 166 241)" fill="#1D0330"/>
<rect width="15" height="15" transform="matrix(-1 0 0 1 166 226)" fill="#1D0330"/>
<rect width="15" height="15" transform="matrix(-1 0 0 1 151 226)" fill="#1D0330"/>
<rect width="15" height="15" transform="matrix(-1 0 0 1 151 211)" fill="#1D0330"/>
<rect width="15" height="15" transform="matrix(-1 0 0 1 151 196)" fill="#1D0330"/>
<rect width="15" height="15" transform="matrix(-1 0 0 1 151 181)" fill="#1D0330"/>
<rect width="15" height="15" transform="matrix(-1 0 0 1 151 166)" fill="#1D0330"/>
<rect width="15" height="15" transform="matrix(-1 0 0 1 151 151)" fill="#1D0330"/>
<rect width="15" height="15" transform="matrix(-1 0 0 1 151 136)" fill="#1D0330"/>
<rect width="15" height="15" transform="matrix(-1 0 0 1 151 121)" fill="#1D0330"/>
<rect width="15" height="15" transform="matrix(-1 0 0 1 151 106)" fill="#1D0330"/>
<rect width="15" height="15" transform="matrix(-1 0 0 1 151 91)" fill="#1D0330"/>
<rect x="211" y="286" width="15" height="15" fill="#1D0330"/>
<rect x="196" y="331" width="15" height="15" fill="#1D0330"/>
<rect x="241" y="376" width="15" height="15" fill="#1D0330"/>
<rect x="211" y="91" width="15" height="15" fill="#1D0330"/>
<rect x="211" y="106" width="15" height="15" fill="#FFD300"/>
<rect x="211" y="121" width="15" height="15" fill="#FFD300"/>
<rect x="211" y="136" width="15" height="15" fill="#FFD300"/>
<rect x="211" y="151" width="15" height="15" fill="#FFD300"/>
<rect x="211" y="166" width="15" height="15" fill="#FFD300"/>
<rect x="211" y="181" width="15" height="15" fill="#FFD300"/>
<rect x="211" y="196" width="15" height="15" fill="#FFD300"/>
<rect x="211" y="211" width="15" height="15" fill="#FFD300"/>
<rect x="211" y="226" width="15" height="15" fill="#FFD300"/>
<rect x="211" y="241" width="15" height="15" fill="#FFD300"/>
<rect x="211" y="256" width="15" height="15" fill="#FFD300"/>
<rect x="211" y="361" width="15" height="15" fill="#FFD300"/>
<rect x="211" y="346" width="15" height="15" fill="#FFD300"/>
<rect x="211" y="271" width="15" height="15" fill="#FFD300"/>
<rect x="271" y="91" width="15" height="15" fill="#1D0330"/>
<rect x="271" y="106" width="15" height="15" fill="#FFD300"/>
<rect x="271" y="121" width="15" height="15" fill="#FFD300"/>
<rect x="271" y="136" width="15" height="15" fill="#FFD300"/>
<rect x="271" y="151" width="15" height="15" fill="#FFD300"/>
<rect x="271" y="166" width="15" height="15" fill="#FFD300"/>
<rect x="271" y="181" width="15" height="15" fill="#FFD300"/>
<rect x="271" y="196" width="15" height="15" fill="#FFD300"/>
<rect x="271" y="211" width="15" height="15" fill="#FFD300"/>
<rect x="271" y="226" width="15" height="15" fill="#FFD300"/>
<rect x="271" y="241" width="15" height="15" fill="#FFD300"/>
<rect x="271" y="256" width="15" height="15" fill="#DFBA03"/>
<rect x="271" y="361" width="15" height="15" fill="#FFD300"/>
<rect x="286" y="361" width="15" height="15" fill="#FFD300"/>
<rect x="181" y="361" width="15" height="15" fill="#FFD300"/>
<rect x="271" y="346" width="15" height="15" fill="#FFD300"/>
<rect x="286" y="346" width="15" height="15" fill="#FFD300"/>
<rect x="181" y="346" width="15" height="15" fill="#FFD300"/>
<path d="M1 1L1.00002 480.999M16 1L16 480.999M31 1L31 480.999M46 1L46 480.999M61 1L61 480.999M76 1L76 480.999M91 1L91 480.999M106 1L106 480.999M121 1L121 480.999M136 1L136 480.999M151 1L151 480.999M166 1L166 480.999M181 1L181 480.999M196 1L196 480.999M211 1L211 480.999M226 1L226 480.999M241 1L241 480.999M256 1L256 480.999M271 1L271 480.999M286 1L286 480.999M301 1L301 480.999M316 1L316 480.999M331 1L331 480.999M346 1L346 480.999M361 1L361 480.999M376 1L376 480.999M391 1L391 480.999M406 1L406 480.999M421 1L421 480.999M436 1L436 480.999M451 1L451 480.999M466 1L466 480.999M481 1L481 480.999" stroke="black" stroke-opacity="0.2"/>
<path d="M1 1H480.999M1 16H480.999M1 31H480.999M1 45.9999H480.999M1 60.9999H480.999M1 75.9999H480.999M1 90.9999H480.999M1 106H480.999M1 121H480.999M1 136H480.999M1 151H480.999M1 166H480.999M1 181H480.999M1 196H480.999M1 211H480.999M1 226H480.999M1 241H480.999M1 256H480.999M1 271H480.999M1 286H480.999M1 301H480.999M1 316H480.999M1 331H480.999M1 345.999H480.999M1 360.999H480.999M1 375.999H480.999M1 390.999H480.999M1 405.999H480.999M1 420.999H480.999M1 435.999H480.999M1 450.999H480.999M1 465.999H480.999M1 480.999H480.999" stroke="black" stroke-opacity="0.2"/>
</svg>
