<svg width="228" height="57" viewBox="0 0 228 57" fill="none" xmlns="http://www.w3.org/2000/svg">
<path d="M51.0619 43.0483C50.7788 43.0679 50.564 43.0939 50.3492 43.0939C47.4821 43.0939 44.6117 43.0744 41.7445 43.1102C41.0806 43.1167 40.9016 42.9084 40.9049 42.264C40.9277 37.6655 40.9439 33.067 40.8984 28.4685C40.8853 27.1895 40.8105 25.8682 40.4851 24.6413C39.87 22.3339 38.1126 21.4194 35.7238 21.862C34.1715 22.1484 33.1626 23.1736 32.17 24.2508C31.8543 24.5925 31.6005 24.996 31.2848 25.3345C30.7413 25.9138 30.5981 26.5809 30.6046 27.3653C30.6339 32.2404 30.6176 37.1123 30.6176 41.9874V43.0256H20.4703V42.0492C20.4703 37.5614 20.4866 33.0703 20.4606 28.5824C20.4541 27.541 20.4085 26.4833 20.2132 25.4679C19.5493 22.0052 16.6692 20.7425 13.6035 22.5324C12.1032 23.4079 11.2636 24.9049 10.2319 26.2164C10.092 26.3954 10.1506 26.7469 10.1506 27.017C10.1473 32.0028 10.1506 36.9853 10.1506 41.9711C10.1506 42.2998 10.1506 42.6285 10.1506 43.0223H0V14.5103H10.092V18.3733C11.179 17.5076 12.1097 16.5964 13.1934 15.9325C17.1834 13.4819 21.3686 13.2248 25.6253 15.1839C27.4674 16.0301 28.6682 17.5662 29.5307 19.3626C30.6827 18.37 31.7274 17.2993 32.9348 16.4629C37.0712 13.5893 41.5167 13.0458 46.1217 15.1872C48.7936 16.4304 50.0921 18.8257 50.6258 21.6147C50.8992 23.0369 51.0652 24.4981 51.0782 25.9463C51.1303 31.4528 51.0977 36.9626 51.0977 42.469C51.0977 42.6318 51.0782 42.7945 51.0587 43.0516L51.0619 43.0483Z" fill="#002BBA"/>
<path d="M106.075 43.0953C106.075 42.7048 106.075 42.4086 106.075 42.1157C106.075 37.3805 106.092 32.6421 106.062 27.9069C106.056 26.9794 105.919 26.0486 105.779 25.1276C105.307 22.0294 103.091 21.3492 100.478 22.0099C98.6326 22.4753 97.5163 23.904 96.4229 25.3424C95.951 25.964 95.772 26.6051 95.7752 27.3895C95.8045 32.3167 95.7752 37.2471 95.8045 42.1776C95.8078 42.887 95.6353 43.1278 94.8868 43.1181C92.0749 43.0725 89.2631 43.1018 86.448 43.0986C86.204 43.0986 85.9599 43.079 85.6475 43.0628C85.6312 42.7634 85.6051 42.4965 85.6051 42.2296C85.6051 33.28 85.6116 24.3303 85.5889 15.3806C85.5889 14.6842 85.7288 14.4238 86.4903 14.4368C89.3022 14.4824 92.114 14.4564 94.9291 14.4564C95.1732 14.4564 95.4172 14.4564 95.7589 14.4564V18.3487C96.7646 17.522 97.5782 16.7117 98.5252 16.1064C102.593 13.4931 106.896 13.1155 111.302 15.13C113.821 16.2821 115.107 18.5244 115.657 21.1084C116.054 22.9764 116.255 24.9128 116.285 26.8232C116.369 31.9164 116.298 37.0095 116.33 42.106C116.337 42.8968 116.115 43.1311 115.318 43.1181C112.288 43.0725 109.255 43.0986 106.075 43.0986V43.0953Z" fill="#002BBA"/>
<path d="M83.9086 36.3112C83.9086 38.0197 83.9216 39.6177 83.8891 41.2123C83.8858 41.4108 83.6743 41.707 83.4888 41.7851C80.8039 42.8981 78.0572 43.6889 75.0989 43.6076C72.9152 43.549 71.1448 42.9437 70.3897 40.6591C69.254 41.3132 68.2288 42.0585 67.0898 42.5304C63.588 43.9818 59.9853 44.1543 56.5194 42.5434C53.9191 41.336 52.9102 38.9961 52.92 36.181C52.9298 32.5523 55.0907 30.2677 58.3158 28.9496C61.6646 27.5828 65.1273 26.4958 68.538 25.2819C69.7421 24.8523 69.8528 24.6571 69.6347 23.4204C69.293 21.4905 68.3037 20.6281 66.3738 20.4393C62.3513 20.0423 58.957 21.51 55.8587 23.8858C55.2176 24.3772 54.6155 24.9142 53.8898 25.5195C53.8573 25.1875 53.8247 25.0053 53.8247 24.823C53.8215 22.7304 53.7954 20.6378 53.8475 18.5453C53.8573 18.1873 54.1144 17.7089 54.4105 17.5006C57.0043 15.6781 59.9593 14.7571 63.0478 14.2657C66.4975 13.7189 69.9406 13.7287 73.3513 14.6399C77.4519 15.7334 79.9285 18.8837 79.9317 23.1047C79.935 26.9319 79.9415 30.7591 79.948 34.5863C79.948 34.6677 79.948 34.7523 79.948 34.8337C80.0261 36.9783 80.869 37.512 82.8672 36.6854C83.1666 36.5617 83.479 36.4609 83.9021 36.3079L83.9086 36.3112ZM69.7877 29.4378C67.835 30.2775 65.954 30.9902 64.3463 32.2529C63.4936 32.9233 63.0771 33.8053 62.9371 34.8532C62.6703 36.8254 64.1185 38.2443 66.0939 38.0295C67.4933 37.8798 68.4761 37.0109 69.5436 36.2721C69.6738 36.181 69.7747 35.9564 69.7747 35.7937C69.7909 33.7141 69.7844 31.6378 69.7844 29.4346L69.7877 29.4378Z" fill="#002BBA"/>
<path d="M154.042 14.8969H148.874C148.561 16.8496 148.265 18.6883 147.972 20.5271C146.937 27.0717 145.899 33.6164 144.88 40.1643C144.461 42.8557 144.028 45.5438 143.009 48.092C141.89 50.8941 140.425 53.4911 137.828 55.1834C134.691 57.2272 131.368 57.4322 128.039 55.6423C125.744 54.4089 124.709 51.9485 125.106 49.0716C125.399 46.94 127.144 45.1305 129.487 44.5317C132.868 43.6693 136.028 46.1459 135.83 49.5468C134.561 49.9731 133.356 50.5784 132.914 51.9681C132.686 52.6808 132.533 53.4911 132.637 54.2169C132.878 55.8734 134.05 56.3648 135.921 55.8343C137.21 55.4666 138.072 54.5065 138.645 53.3349C139.921 50.7314 140.21 48.079 138.811 45.4169C138.114 44.0924 136.933 43.2853 135.631 42.6344C135.293 42.4651 134.941 42.3187 134.567 42.1495C135.957 33.0989 137.337 24.0972 138.739 14.9457H134.343C134.343 14.8644 134.343 14.7797 134.343 14.6984H138.635C138.938 12.8206 139.13 11.0437 139.524 9.31556C140.262 6.05788 141.671 3.19398 144.682 1.38127C147.956 -0.59417 153.267 -0.431449 156.046 1.74576C158.256 3.47712 158.972 6.71852 157.713 9.28952C156.43 11.9126 153.684 13.2176 150.904 12.5277C148.701 11.9809 147.298 9.8981 147.484 7.40195C147.829 7.28805 148.197 7.18716 148.551 7.05048C150.305 6.3703 151.279 4.54131 150.878 2.70582C150.494 0.948428 148.952 0.17062 147.012 0.753162C145.033 1.35198 143.963 2.81321 143.286 4.65522C141.964 8.25461 143.465 12.4235 146.771 13.8587C147.946 14.3697 149.316 14.4933 150.618 14.6365C151.744 14.7602 152.893 14.6626 154.032 14.6626C154.032 14.7439 154.032 14.8253 154.035 14.9067L154.042 14.8969Z" fill="#002BBA"/>
<path d="M196.402 14.0312C198.661 14.1907 200.88 14.3925 202.992 15.1996C204.636 15.8277 206.019 16.7585 206.494 18.6135C206.943 20.3774 206.1 22.317 204.493 23.1632C202.774 24.0712 200.376 23.7229 199.253 22.3756C199.032 22.1087 198.895 21.767 198.745 21.4481C198.42 20.7549 198.397 20.2439 199.26 19.8176C200.278 19.3132 200.854 18.3857 200.744 17.1848C200.643 16.075 199.923 15.3525 198.95 15.0206C196.067 14.0345 193.275 14.3176 190.785 16.1173C188.692 17.6274 188.865 20.3155 190.977 21.7963C192.835 23.0981 194.99 23.6806 197.069 24.4519C199.334 25.2948 201.596 26.1149 203.552 27.6087C206.51 29.8673 207.06 33.6229 205.622 36.8155C204.307 39.7347 201.85 41.414 198.98 42.5172C193.939 44.4504 188.771 44.8344 183.528 43.4057C181.725 42.9143 180.081 42.0909 179.001 40.4604C177.699 38.4948 178.421 35.569 180.524 34.2608C182.695 32.9102 185.607 33.4634 186.707 35.4519C186.876 35.7578 186.971 36.1093 187.065 36.4477C187.212 36.9717 187.14 37.3167 186.522 37.5868C185.428 38.0619 184.644 39.6859 184.764 40.903C184.911 42.3578 185.832 43.2169 187.134 43.5489C190.199 44.3267 193.239 44.0989 196.025 42.5791C198.729 41.1016 198.794 38.0977 196.126 36.5291C194.157 35.3705 191.976 34.5634 189.867 33.6522C187.677 32.7051 185.484 31.8037 183.57 30.3099C179.831 27.3907 179.866 21.9753 183.108 18.7599C185.399 16.4851 188.243 15.3135 191.335 14.6984C193.001 14.3665 194.707 14.2493 196.396 14.0345L196.402 14.0312Z" fill="#002BBA"/>
<path d="M160.92 26.3352C160.823 28.6166 160.784 30.7352 161.513 32.8115C162.583 35.8609 164.874 37.6769 168.09 37.781C171.953 37.9047 175.197 36.5932 177.612 33.482C177.658 33.4234 177.739 33.3941 178.032 33.1988C177.873 33.6284 177.821 33.866 177.703 34.0677C175.565 37.6574 172.815 40.6515 169.021 42.5C164.998 44.4591 160.793 44.9766 156.572 43.1899C152.872 41.6245 150.88 38.6337 150.282 34.7414C149.497 29.632 150.835 25.0107 154.034 21.0142C157.051 17.2456 161.044 14.9871 165.87 14.3459C169.245 13.8968 172.561 14.1311 175.777 15.3678C179.607 16.8421 180.694 20.9687 177.947 23.8586C176.841 25.0204 175.389 25.642 173.866 26.0749C170.527 27.0219 167.13 26.9926 163.716 26.6574C162.818 26.5696 161.919 26.4524 160.924 26.3352H160.92ZM160.95 25.8764C163.667 26.0651 166.101 25.5574 168.165 23.8879C170.303 22.1631 171.435 19.9305 171.113 17.1187C170.866 14.9643 169.209 13.9001 167.214 14.7365C166.238 15.1465 165.252 15.8007 164.565 16.598C162.31 19.2211 161.402 22.4202 160.946 25.8764H160.95Z" fill="#002BBA"/>
<path d="M212.109 14.8716H208.155C208.155 14.787 208.155 14.7024 208.151 14.6178C208.451 14.6178 208.753 14.6373 209.05 14.6178C211.624 14.429 214.214 14.3412 216.769 14.006C219.662 13.6285 221.514 11.8776 222.311 9.07877C222.767 7.47108 223.141 5.84061 223.555 4.21991C223.603 4.02139 223.662 3.82612 223.717 3.63086C223.799 3.64713 223.883 3.66015 223.965 3.67642C223.405 7.28883 222.845 10.9012 222.269 14.6308H227.997C227.997 14.7024 227.997 14.7773 228 14.8489C227.75 14.8619 227.499 14.8879 227.248 14.8879C225.813 14.8912 224.381 14.9042 222.946 14.8814C222.438 14.8749 222.184 14.9595 222.09 15.5681C221.071 22.295 220.007 29.0154 218.956 35.7358C218.816 36.6307 218.673 37.5224 218.543 38.4207C218.504 38.6908 218.484 38.9707 218.491 39.244C218.513 40.0772 218.533 40.9461 219.399 41.3985C220.043 41.7337 221.247 41.3106 221.839 40.4449C222.402 39.6183 222.796 38.6745 223.249 37.7763C223.372 37.529 223.444 37.2556 223.633 37.031C223.516 38.5801 222.9 39.9405 221.866 41.0502C219.272 43.836 216.066 44.8058 212.35 43.9792C210.517 43.5724 209.382 42.3813 208.874 40.6011C208.369 38.8307 208.633 37.0538 208.91 35.2867C209.713 30.1089 210.534 24.9343 211.347 19.7565C211.598 18.1684 211.842 16.577 212.109 14.8749V14.8716Z" fill="#002BBA"/>
<path d="M120.543 14.4902H130.677V43.0511H120.543V14.4902Z" fill="#002BBA"/>
</svg>
