<svg width="100" height="21" viewBox="0 0 100 21" fill="none" xmlns="http://www.w3.org/2000/svg">
<g clip-path="url(#clip0_1155_1418)">
<path d="M92.4161 4.3064H88.251V19.2315H92.4161V4.3064Z" fill="#022BB6"/>
<path d="M100.093 0.000488281H92.416V4.30658H100.093V0.000488281Z" fill="#022BB6"/>
<path d="M45.5899 4.55566H41.4248V19.4808H45.5899V4.55566Z" fill="#022BB6"/>
<path d="M53.267 0.24707H45.5898V4.55316H53.267V0.24707Z" fill="#022BB6"/>
<path d="M59.3458 4.55566H55.1807V19.4808H59.3458V4.55566Z" fill="#022BB6"/>
<path d="M67.0229 0.24707H59.3457V4.55316H67.0229V0.24707Z" fill="#022BB6"/>
<path d="M73.0997 4.55566H68.9346V15.1727H73.0997V4.55566Z" fill="#022BB6"/>
<path d="M84.9444 4.55566H80.7793V15.1727H84.9444V4.55566Z" fill="#022BB6"/>
<path d="M80.7768 0.24707H73.0996V4.55316H80.7768V0.24707Z" fill="#022BB6"/>
<path d="M80.7768 15.1721H73.0996V19.4782H80.7768V15.1721Z" fill="#022BB6"/>
<path d="M33.912 8.47741C33.912 8.47741 33.912 8.47949 33.912 8.48156H22.7124C22.7124 8.48156 22.7124 8.47949 22.7124 8.47741H18.4167C18.3151 9.06206 18.2529 9.6633 18.2529 10.2853C18.2529 15.885 22.5632 20.1206 28.3827 20.1206C32.8401 20.1206 36.5243 17.6535 38.0357 14.0046H33.4683C32.5105 15.4414 30.6322 16.3992 28.4573 16.3992C25.5113 16.3992 23.2992 14.5934 22.673 11.8671H38.2181C38.2907 11.3882 38.328 10.8367 38.328 10.3205C38.328 9.68611 38.2658 9.07036 38.16 8.47534H33.9058L33.912 8.47741Z" fill="#022BB6"/>
<path d="M2.26563 19.3682C2.58905 19.6895 3.01821 19.7642 3.39139 19.4739C4.57935 18.3274 5.69682 17.0918 6.92832 15.9971C7.29735 15.8478 7.66016 16.1111 7.69126 16.4947C7.75761 17.2742 7.59382 18.232 7.69126 18.9888C7.74102 19.3744 8.10798 19.6812 8.4936 19.6812H17.3877C17.8045 19.646 18.1279 19.3951 18.1652 18.9618C18.2523 17.9605 18.0989 16.8368 18.1652 15.8209C18.1258 15.429 17.7941 15.1761 17.4188 15.1305H8.96422C8.54958 15.0496 8.37543 14.5521 8.6408 14.2204L18.7519 4.11131C19.3221 3.38568 18.6566 2.97311 18.2067 2.51285C17.7277 2.02357 17.1991 1.42233 16.6932 0.974517C16.3573 0.678045 16.0049 0.576457 15.6089 0.85427L12.2192 4.24399C11.8999 4.54668 11.3381 4.35387 11.2738 3.92886C11.1556 3.1597 11.3526 2.14382 11.2655 1.35392C11.251 1.22538 11.1639 1.03464 11.0789 0.939272C11.0188 0.870855 10.8198 0.738169 10.7306 0.715363L1.47573 0.694631C1.09426 0.727803 0.820593 1.03671 0.785348 1.41404C0.696199 2.39053 0.853764 3.50385 0.785348 4.49693C0.824739 4.89084 1.11292 5.1728 1.50268 5.21841H9.9573C10.4051 5.28475 10.5917 5.80099 10.3097 6.15758L0.364483 16.08C-0.0771141 16.4947 -0.131018 16.9135 0.277408 17.38C0.87657 18.0641 1.66854 18.6674 2.26563 19.3682Z" fill="#022BB6"/>
<path d="M33.6215 0.000244141H25.9443V4.30633H33.6215V0.000244141Z" fill="#022BB6"/>
<path d="M38.3335 4.23975H33.6211V11.8962H38.3335V4.23975Z" fill="#022BB6"/>
</g>
<defs>
<clipPath id="clip0_1155_1418">
<rect width="100.095" height="20.1227" fill="white"/>
</clipPath>
</defs>
</svg>
