<svg width="892" height="144" viewBox="0 0 892 144" fill="none" xmlns="http://www.w3.org/2000/svg">
<path d="M49.7874 141.439H-3.66718e-05V1.66281H46.9508C59.7971 1.66281 70.1654 5.41236 78.0558 12.9115C86.0113 20.3453 89.9891 30.1268 89.9891 42.2557C89.9891 51.9068 87.4133 60.1884 82.2618 67.1006C90.9347 75.0561 95.2711 85.5549 95.2711 98.5968C95.2711 111.378 91.0977 121.714 82.7509 129.604C74.404 137.494 63.4162 141.439 49.7874 141.439ZM46.9508 55.0694C56.5366 55.0694 61.3295 50.8634 61.3295 42.4514C61.3295 39.1257 60.5796 36.5825 59.0798 34.8219C57.58 33.0612 55.7215 31.8874 53.5044 31.3005C51.3525 30.6484 49.168 30.3224 46.9508 30.3224H28.6596V55.0694H46.9508ZM49.7874 112.78C51.8742 112.78 54.2217 112.454 56.8301 111.802C59.5037 111.084 61.786 109.715 63.6771 107.694C65.6334 105.607 66.6115 102.477 66.6115 98.3033C66.6115 94.0647 65.6334 90.9347 63.6771 88.9132C61.786 86.8265 59.5037 85.4571 56.8301 84.805C54.2217 84.0877 51.8742 83.729 49.7874 83.729H28.6596V112.78H49.7874ZM166.871 143.102C149.656 143.102 135.929 137.918 125.691 127.55C115.453 117.182 110.335 103.357 110.335 86.0766V1.66281H138.994V85.8809C138.994 94.9451 141.439 101.988 146.33 107.009C151.221 111.965 158.1 114.443 166.969 114.443C175.903 114.443 182.815 111.965 187.706 107.009C192.596 101.988 195.042 94.9451 195.042 85.8809V1.66281H223.701V86.0766C223.701 97.6839 221.321 107.759 216.561 116.301C211.801 124.778 205.149 131.365 196.607 136.06C188.129 140.755 178.218 143.102 166.871 143.102ZM267.522 141.439H238.863V1.66281H267.522V141.439ZM366.804 141.439H282.683V1.66281H311.343V112.78H366.804V141.439ZM411.994 141.439H383.334V30.3224H349.197V1.66281H446.033V30.3224H411.994V141.439ZM577.3 143.102C567.519 143.102 558.259 141.342 549.521 137.82C540.783 134.299 533.088 129.213 526.437 122.561C519.785 115.845 514.699 108.117 511.178 99.3793C507.656 90.6412 505.896 81.3489 505.896 71.5022C505.896 61.6556 507.656 52.3632 511.178 43.6251C514.699 34.8871 519.785 27.1923 526.437 20.541C533.088 13.8896 540.783 8.80325 549.521 5.28194C558.259 1.76062 567.519 -3.42429e-05 577.3 -3.42429e-05C587.147 -3.42429e-05 596.406 1.76062 605.079 5.28194C613.817 8.80325 621.512 13.8896 628.163 20.541C634.815 27.1923 639.901 34.8871 643.422 43.6251C646.944 52.3632 648.704 61.6556 648.704 71.5022C648.704 81.3489 646.944 90.6412 643.422 99.3793C639.901 108.117 634.815 115.845 628.163 122.561C621.512 129.213 613.817 134.299 605.079 137.82C596.406 141.342 587.147 143.102 577.3 143.102ZM577.3 114.443C585.582 114.443 592.918 112.584 599.308 108.867C605.764 105.15 610.818 100.064 614.469 93.6083C618.186 87.1525 620.045 79.7838 620.045 71.5022C620.045 63.2206 618.186 55.8519 614.469 49.3962C610.818 42.9404 605.764 37.8867 599.308 34.235C592.918 30.518 585.582 28.6596 577.3 28.6596C569.084 28.6596 561.748 30.518 555.292 34.235C548.836 37.8867 543.75 42.9404 540.033 49.3962C536.381 55.8519 534.555 63.2206 534.555 71.5022C534.555 79.7838 536.381 87.1525 540.033 93.6083C543.75 100.064 548.836 105.15 555.292 108.867C561.748 112.584 569.084 114.443 577.3 114.443ZM720.305 143.102C703.089 143.102 689.363 137.918 679.125 127.55C668.887 117.182 663.768 103.357 663.768 86.0766V1.66281H692.427V85.8809C692.427 94.9451 694.873 101.988 699.764 107.009C704.654 111.965 711.534 114.443 720.402 114.443C729.336 114.443 736.248 111.965 741.139 107.009C746.03 101.988 748.475 94.9451 748.475 85.8809V1.66281H777.135V86.0766C777.135 97.6839 774.754 107.759 769.994 116.301C765.234 124.778 758.583 131.365 750.04 136.06C741.563 140.755 731.651 143.102 720.305 143.102ZM891.382 141.439H858.418L831.324 90.4782H820.955V141.439H792.296V1.66281H841.007C854.962 1.66281 866.113 5.73841 874.46 13.8896C882.807 22.0408 886.98 32.7352 886.98 45.9727C886.98 55.8845 884.698 64.3292 880.133 71.3066C875.568 78.284 869.341 83.403 861.451 86.6634L891.382 141.439ZM841.007 61.8186C846.094 61.8186 849.843 61.0361 852.256 59.4711C854.734 57.906 856.364 55.9171 857.147 53.5044C857.929 51.0916 858.321 48.5811 858.321 45.9727C858.321 43.5599 857.929 41.1472 857.147 38.7344C856.429 36.3217 854.832 34.3328 852.354 32.7678C849.876 31.1375 846.094 30.3224 841.007 30.3224H820.955V61.8186H841.007Z" fill="white"/>
</svg>
