<svg width="331" height="332" viewBox="0 0 331 332" fill="none" xmlns="http://www.w3.org/2000/svg">
<path d="M257.972 139.655C257.972 139.655 257.972 139.689 257.972 139.723H73.4673C73.4673 139.723 73.4673 139.689 73.4673 139.655H2.69824C1.02465 149.286 0 159.191 0 169.438C0 261.69 71.0081 331.469 166.881 331.469C240.314 331.469 301.007 290.824 325.906 230.712H250.663C234.883 254.381 203.939 270.161 168.111 270.161C119.576 270.161 83.1331 240.412 72.8183 195.498H328.912C330.107 187.608 330.722 178.523 330.722 170.018C330.722 159.567 329.698 149.423 327.956 139.621H257.87L257.972 139.655Z" fill="white"/>
<path d="M253.194 0H126.719V70.9398H253.194V0Z" fill="white"/>
<path d="M330.828 69.8398H253.193V195.974H330.828V69.8398Z" fill="white"/>
</svg>
