<svg width="416" height="109" viewBox="0 0 416 109" fill="none" xmlns="http://www.w3.org/2000/svg">
<g clip-path="url(#clip0_655_3332)">
<rect x="32.3027" width="44.7486" height="25.5706" rx="1.22686" fill="white"/>
<rect x="32.3027" y="83.0981" width="44.7486" height="25.5706" rx="1.22686" fill="white"/>
<rect x="74.7266" y="67.4033" width="44.7486" height="25.5706" rx="1.22686" transform="rotate(-90 74.7266 67.4033)" fill="white"/>
<rect x="9.63867" y="85.4275" width="63.9265" height="25.5706" rx="1.22686" transform="rotate(-90 9.63867 85.4275)" fill="white"/>
<rect x="99.1348" y="67.4033" width="63.9265" height="25.5706" rx="1.22686" transform="rotate(-180 99.1348 67.4033)" fill="white"/>
</g>
<g clip-path="url(#clip1_655_3332)">
<rect x="129.9" width="44.8537" height="25.6307" rx="1.22974" fill="white"/>
<rect x="108.93" y="108.922" width="85.0473" height="25.6307" rx="1.22974" transform="rotate(-90 108.93 108.922)" fill="white"/>
</g>
<g clip-path="url(#clip2_655_3332)">
<rect x="195.809" width="44.8537" height="25.6307" rx="1.22974" fill="white"/>
<rect x="174.836" y="108.922" width="85.0473" height="25.6307" rx="1.22974" transform="rotate(-90 174.836 108.922)" fill="white"/>
</g>
<g clip-path="url(#clip3_655_3332)">
<rect x="250.766" y="85.8679" width="62.8223" height="25.3595" rx="1.21673" transform="rotate(-90 250.766 85.8679)" fill="white"/>
<rect x="314.74" y="85.8682" width="62.8223" height="25.3595" rx="1.21673" transform="rotate(-90 314.74 85.8682)" fill="white"/>
<rect x="273.818" width="42.65" height="25.3595" rx="1.21673" fill="white"/>
<rect x="273.818" y="83.571" width="42.65" height="25.3595" rx="1.21673" fill="white"/>
</g>
<g clip-path="url(#clip4_655_3332)">
<rect x="370.637" width="44.8537" height="25.6307" rx="1.22974" fill="white"/>
<rect x="349.666" y="108.922" width="85.0473" height="25.6307" rx="1.22974" transform="rotate(-90 349.666 108.922)" fill="white"/>
</g>
<defs>
<clipPath id="clip0_655_3332">
<rect width="108.93" height="108.93" fill="white"/>
</clipPath>
<clipPath id="clip1_655_3332">
<rect width="65.9029" height="108.93" fill="white" transform="translate(108.93)"/>
</clipPath>
<clipPath id="clip2_655_3332">
<rect width="65.9029" height="108.93" fill="white" transform="translate(174.834)"/>
</clipPath>
<clipPath id="clip3_655_3332">
<rect width="108.93" height="108.93" fill="white" transform="translate(240.736)"/>
</clipPath>
<clipPath id="clip4_655_3332">
<rect width="65.9029" height="108.93" fill="white" transform="translate(349.666)"/>
</clipPath>
</defs>
</svg>
