<svg width="609" height="142" viewBox="0 0 609 142" fill="none" xmlns="http://www.w3.org/2000/svg">
<rect width="608.727" height="141.7" fill="#012CBA"/>
<g clip-path="url(#clip0_352_1786)">
<rect x="29.2681" width="58.2104" height="33.2631" rx="1.59594" fill="white"/>
<rect x="29.2681" y="108.105" width="58.2104" height="33.2631" rx="1.59594" fill="white"/>
<rect x="84.4546" y="87.6943" width="58.2104" height="33.2631" rx="1.59594" transform="rotate(-90 84.4546 87.6943)" fill="white"/>
<rect x="-0.215332" y="111.129" width="83.1578" height="33.2631" rx="1.59594" transform="rotate(-90 -0.215332 111.129)" fill="white"/>
<rect x="116.206" y="87.6943" width="83.1578" height="33.2631" rx="1.59594" transform="rotate(-180 116.206 87.6943)" fill="white"/>
</g>
<g clip-path="url(#clip1_352_1786)">
<rect x="159.061" width="58.3472" height="33.3413" rx="1.59969" fill="white"/>
<rect x="131.781" y="141.701" width="110.632" height="33.3413" rx="1.59969" transform="rotate(-90 131.781 141.701)" fill="white"/>
</g>
<g clip-path="url(#clip2_352_1786)">
<rect x="258.959" width="58.3472" height="33.3413" rx="1.59969" fill="white"/>
<rect x="231.68" y="141.701" width="110.632" height="33.3413" rx="1.59969" transform="rotate(-90 231.68 141.701)" fill="white"/>
</g>
<g clip-path="url(#clip3_352_1786)">
<rect x="331.875" y="111.712" width="81.7214" height="32.9885" rx="1.58276" transform="rotate(-90 331.875 111.712)" fill="white"/>
<rect x="415.095" y="111.712" width="81.7214" height="32.9885" rx="1.58276" transform="rotate(-90 415.095 111.712)" fill="white"/>
<rect x="361.864" width="55.4806" height="32.9885" rx="1.58276" fill="white"/>
<rect x="361.864" y="108.712" width="55.4806" height="32.9885" rx="1.58276" fill="white"/>
</g>
<g clip-path="url(#clip4_352_1786)">
<rect x="489.223" width="58.3472" height="33.3413" rx="1.59969" fill="white"/>
<rect x="461.943" y="141.701" width="110.632" height="33.3413" rx="1.59969" transform="rotate(-90 461.943 141.701)" fill="white"/>
</g>
<defs>
<clipPath id="clip0_352_1786">
<rect width="117.611" height="141.7" fill="white"/>
</clipPath>
<clipPath id="clip1_352_1786">
<rect width="85.7287" height="141.7" fill="white" transform="translate(131.781)"/>
</clipPath>
<clipPath id="clip2_352_1786">
<rect width="85.7287" height="141.7" fill="white" transform="translate(231.68)"/>
</clipPath>
<clipPath id="clip3_352_1786">
<rect width="116.194" height="141.7" fill="white" transform="translate(331.579)"/>
</clipPath>
<clipPath id="clip4_352_1786">
<rect width="85.7287" height="141.7" fill="white" transform="translate(461.943)"/>
</clipPath>
</defs>
</svg>
