<svg width="42" height="42" viewBox="0 0 42 42" fill="none" xmlns="http://www.w3.org/2000/svg">
<g clip-path="url(#clip0_347_856)">
<path d="M34.0774 4.68753C37.6963 7.75591 40.2573 11.6697 41.2816 16.3443C41.3238 16.5299 41.3659 16.7155 41.4093 16.9067C42.4065 22.1569 41.3373 27.8913 38.3734 32.3442C35.1915 36.9655 30.6581 40.2493 25.1007 41.3895C19.6291 42.3902 13.987 41.4699 9.33365 38.3697C4.34753 34.8988 1.26058 30.0452 0.165712 24.0527C-0.270815 20.0539 0.116729 16.057 1.78815 12.376C1.86926 12.1911 1.95037 12.0062 2.03395 11.8158C4.35603 6.83801 8.61436 3.19178 13.6929 1.22713C14.6214 0.904625 15.5659 0.673573 16.5273 0.471273C16.722 0.428889 16.9166 0.386505 17.1171 0.342836C23.0812 -0.7664 29.3922 0.851013 34.0774 4.68753ZM10.6695 9.54155C10.6695 11.2876 10.6695 13.0336 10.6695 14.8325C11.0921 14.8373 11.5147 14.842 11.9501 14.8469C13.3432 14.8626 14.7362 14.8794 16.1293 14.8967C16.9742 14.9071 17.8192 14.9172 18.6642 14.9265C19.479 14.9355 20.2938 14.9454 21.1085 14.9559C21.4201 14.9598 21.7316 14.9633 22.0432 14.9665C22.478 14.9711 22.9129 14.9767 23.3477 14.9827C23.7197 14.9871 23.7197 14.9871 24.0992 14.9916C24.6528 15.0215 24.6528 15.0215 24.8418 15.2105C24.9126 15.6593 24.9126 15.6593 24.8418 16.1553C24.0164 16.7909 23.0216 17.0206 22.0376 17.3097C21.6652 17.4224 21.2928 17.5351 20.9204 17.6478C20.3386 17.8224 19.7566 17.9962 19.1743 18.1688C14.2922 19.5262 14.2922 19.5262 10.5816 22.8023C9.86198 24.1621 9.68569 25.6916 10.014 27.1979C10.5077 28.7864 11.3906 29.9385 12.7481 30.8945C14.2077 31.6321 15.5373 31.8683 17.1642 31.8608C17.321 31.8608 17.4778 31.8608 17.6394 31.8608C18.1557 31.8607 18.672 31.8592 19.1883 31.8578C19.5471 31.8574 19.9059 31.8571 20.2646 31.857C21.2075 31.8562 22.1503 31.8544 23.0931 31.8523C24.0558 31.8504 25.0184 31.8495 25.9811 31.8485C27.8689 31.8465 29.7567 31.8432 31.6445 31.8393C31.6445 30.1556 31.6445 28.472 31.6445 26.7373C31.2248 26.7325 30.8052 26.7278 30.3728 26.7229C28.9866 26.7072 27.6003 26.6904 26.214 26.6732C25.3735 26.6627 24.533 26.6526 23.6925 26.6433C22.8814 26.6343 22.0703 26.6244 21.2592 26.6139C20.9497 26.61 20.6402 26.6065 20.3307 26.6033C19.8973 26.5987 19.4639 26.5931 19.0306 26.5871C18.7838 26.5842 18.5371 26.5812 18.2829 26.5782C17.7848 26.5543 17.3774 26.508 16.9053 26.3594C16.9053 25.9228 16.9053 25.4863 16.9053 25.0366C18.5839 24.455 20.2708 23.9095 21.9741 23.4046C22.2752 23.3147 22.5763 23.2249 22.8774 23.135C23.3307 22.9998 23.7842 22.8654 24.2385 22.7336C26.68 22.0253 29.4303 21.2168 30.9469 19.0075C31.9214 17.2084 32.0698 15.2449 31.4998 13.2928C30.9511 12.0253 29.8437 10.7811 28.537 10.2625C26.2539 9.53387 23.9647 9.46247 21.5939 9.48619C21.2763 9.48725 20.9586 9.48805 20.641 9.48862C19.8159 9.49076 18.9908 9.4963 18.1658 9.50262C17.3195 9.50848 16.4731 9.51102 15.6268 9.51387C13.9743 9.5199 12.3219 9.52985 10.6695 9.54155Z" fill="white"/>
</g>
<defs>
<clipPath id="clip0_347_856">
<rect width="42" height="42" fill="white"/>
</clipPath>
</defs>
</svg>
