<svg width="16" height="13" viewBox="0 0 16 13" fill="none" xmlns="http://www.w3.org/2000/svg">
<path d="M15 0H1C0.734784 0 0.48043 0.105357 0.292893 0.292893C0.105357 0.48043 0 0.734784 0 1V12C0 12.2652 0.105357 12.5196 0.292893 12.7071C0.48043 12.8946 0.734784 13 1 13H15C15.2652 13 15.5196 12.8946 15.7071 12.7071C15.8946 12.5196 16 12.2652 16 12V1C16 0.734784 15.8946 0.48043 15.7071 0.292893C15.5196 0.105357 15.2652 0 15 0ZM1 12V1H15V12H1Z" fill="white"/>
<path d="M2 10H3V8.5H4V10H5.5V8.5H6.5V10H8V8.5H9V10H10.5V8.5H11.5V10H12.8615C13.0115 10.01 13.1465 10.09 13.2315 10.215C13.4515 10.53 13.2415 10.965 12.8615 10.995L2 10.9955V10Z" fill="white"/>
</svg>
