<svg width="313" height="313" viewBox="0 0 313 313" fill="none" xmlns="http://www.w3.org/2000/svg">
<path d="M37.3249 307.691C42.6531 312.985 49.7231 314.214 55.871 309.433C75.4418 290.545 93.8513 270.189 114.139 252.155C120.219 249.696 126.196 254.033 126.708 260.352C127.801 273.194 125.103 288.974 126.708 301.44C127.528 307.793 133.573 312.848 139.926 312.848H286.451C293.316 312.268 298.644 308.135 299.259 300.996C300.694 284.5 298.166 265.988 299.259 249.252C298.61 242.796 293.145 238.63 286.963 237.878H147.679C140.849 236.546 137.979 228.349 142.351 222.884L308.925 56.3446C318.318 44.3904 307.354 37.5936 299.942 30.0112C292.052 21.9506 283.343 12.0457 275.009 4.66822C269.476 -0.215937 263.67 -1.88953 257.146 2.68723L201.303 58.5305C196.043 63.5172 186.787 60.3408 185.728 53.339C183.781 40.6675 187.026 23.9316 185.591 10.9186C185.352 8.80096 183.918 5.65871 182.518 4.08759C181.527 2.96047 178.248 0.774556 176.779 0.398852L24.3119 0.0573024C18.0274 0.603781 13.5189 5.69287 12.9383 11.9091C11.4696 27.996 14.0654 46.3372 12.9383 62.6974C13.5872 69.1869 18.3348 73.832 24.7559 74.5834H164.04C171.417 75.6763 174.491 84.1809 169.846 90.0555L6.00482 253.521C-1.27018 260.352 -2.15821 267.251 4.57031 274.936C14.4411 286.207 27.4883 296.146 37.3249 307.691Z" fill="white"/>
</svg>
