<svg width="110" height="21" viewBox="0 0 110 21" fill="none" xmlns="http://www.w3.org/2000/svg">
<g clip-path="url(#clip0_536_7)">
<rect x="0.508301" y="-0.00195312" width="12.3017" height="4.47333" rx="0.214627" fill="#002BBA"/>
<rect x="7.31982" y="15.7578" width="12.4033" height="4.47333" rx="0.214627" fill="#002BBA"/>
<rect x="0.1875" y="17.084" width="23.8265" height="4.47333" rx="0.214627" transform="rotate(-45.811 0.1875 17.084)" fill="#002BBA"/>
</g>
<g clip-path="url(#clip1_536_7)">
<rect x="28.3633" width="8.35292" height="4.7731" rx="0.229009" fill="#002BBA"/>
<rect x="28.3633" y="15.5117" width="8.35292" height="4.7731" rx="0.229009" fill="#002BBA"/>
<rect x="36.2822" y="12.582" width="8.35292" height="4.7731" rx="0.229009" transform="rotate(-90 36.2822 12.582)" fill="#002BBA"/>
<rect x="24.1323" y="15.9453" width="11.9327" height="4.7731" rx="0.229009" transform="rotate(-90 24.1323 15.9453)" fill="#002BBA"/>
<rect x="40.8384" y="12.582" width="11.9327" height="4.7731" rx="0.229009" transform="rotate(-180 40.8384 12.582)" fill="#002BBA"/>
</g>
<g clip-path="url(#clip2_536_7)">
<rect x="48.981" y="0.332031" width="8.37255" height="4.78431" rx="0.229548" fill="#002BBA"/>
<rect x="45.0664" y="20.6641" width="15.8752" height="4.78431" rx="0.229548" transform="rotate(-90 45.0664 20.6641)" fill="#002BBA"/>
</g>
<g clip-path="url(#clip3_536_7)">
<rect x="63.981" y="0.332031" width="8.37255" height="4.78431" rx="0.229548" fill="#002BBA"/>
<rect x="60.0664" y="20.6641" width="15.8752" height="4.78431" rx="0.229548" transform="rotate(-90 60.0664 20.6641)" fill="#002BBA"/>
</g>
<g clip-path="url(#clip4_536_7)">
<rect x="76.5386" y="16.0293" width="11.7266" height="4.73369" rx="0.227118" transform="rotate(-90 76.5386 16.0293)" fill="#002BBA"/>
<rect x="88.4805" y="16.0293" width="11.7266" height="4.73369" rx="0.227118" transform="rotate(-90 88.4805 16.0293)" fill="#002BBA"/>
<rect x="80.8423" width="7.9612" height="4.73369" rx="0.227118" fill="#002BBA"/>
<rect x="80.8423" y="15.5996" width="7.9612" height="4.73369" rx="0.227118" fill="#002BBA"/>
</g>
<g clip-path="url(#clip5_536_7)">
<rect x="101.314" y="0.332031" width="8.37255" height="4.78431" rx="0.229548" fill="#002BBA"/>
<rect x="97.3999" y="20.6641" width="15.8752" height="4.78431" rx="0.229548" transform="rotate(-90 97.3999 20.6641)" fill="#002BBA"/>
</g>
<defs>
<clipPath id="clip0_536_7">
<rect width="20.3333" height="20.3333" fill="white"/>
</clipPath>
<clipPath id="clip1_536_7">
<rect width="20.3333" height="20.3333" fill="white" transform="translate(22.3335)"/>
</clipPath>
<clipPath id="clip2_536_7">
<rect width="13" height="20" fill="white" transform="translate(44.6665 0.166016)"/>
</clipPath>
<clipPath id="clip3_536_7">
<rect width="13" height="20" fill="white" transform="translate(59.6665 0.166016)"/>
</clipPath>
<clipPath id="clip4_536_7">
<rect width="20.3333" height="20.3333" fill="white" transform="translate(74.6665)"/>
</clipPath>
<clipPath id="clip5_536_7">
<rect width="13" height="20" fill="white" transform="translate(97 0.166016)"/>
</clipPath>
</defs>
</svg>
